<svg xmlns="http://www.w3.org/2000/svg" viewBox="0 0 1000 1600" width="1000" height="1600">
<rect width="1000" height="1600" fill="#0a0a12"/>
<style>text { font-family: ui-monospace, monospace; font-size: 11px; fill: #c4c4c8; } .border { stroke: #2a2a36; fill: none; }</style>
<rect class="border" x="0.5" y="0.5" width="199" height="199"/>
<path d="M100.0,39.4 L170.0,160.6 L30.0,160.6 Z" stroke="#e8e8ea" stroke-width="2" fill="none" stroke-linejoin="round" stroke-linecap="round"/>
<text x="8" y="192">triangle</text>
<rect class="border" x="200.5" y="0.5" width="199" height="199"/>
<path d="M370.0,100.0 L369.7,106.9 L368.7,113.7 L367.0,120.3 L364.7,126.8 L361.7,133.0 L358.2,138.9 L354.1,144.4 L349.5,149.5 L344.4,154.1 L338.9,158.2 L333.0,161.7 L326.8,164.7 L320.3,167.0 L313.7,168.7 L306.9,169.7 L300.0,170.0 L293.1,169.7 L286.3,168.7 L279.7,167.0 L273.2,164.7 L267.0,161.7 L261.1,158.2 L255.6,154.1 L250.5,149.5 L245.9,144.4 L241.8,138.9 L238.3,133.0 L235.3,126.8 L233.0,120.3 L231.3,113.7 L230.3,106.9 L230.0,100.0 L230.3,93.1 L231.3,86.3 L233.0,79.7 L235.3,73.2 L238.3,67.0 L241.8,61.1 L245.9,55.6 L250.5,50.5 L255.6,45.9 L261.1,41.8 L267.0,38.3 L273.2,35.3 L279.7,33.0 L286.3,31.3 L293.1,30.3 L300.0,30.0 L306.9,30.3 L313.7,31.3 L320.3,33.0 L326.8,35.3 L333.0,38.3 L338.9,41.8 L344.4,45.9 L349.5,50.5 L354.1,55.6 L358.2,61.1 L361.7,67.0 L364.7,73.2 L367.0,79.7 L368.7,86.3 L369.7,93.1 Z" stroke="#e8e8ea" stroke-width="2" fill="none" stroke-linejoin="round" stroke-linecap="round"/>
<text x="208" y="192">circle</text>
<rect class="border" x="400.5" y="0.5" width="199" height="199"/>
<path d="M570.0,30.0 L570.0,170.0 L430.0,170.0 L430.0,30.0 Z" stroke="#e8e8ea" stroke-width="2" fill="none" stroke-linejoin="round" stroke-linecap="round"/>
<text x="408" y="192">square</text>
<rect class="border" x="600.5" y="0.5" width="199" height="199"/>
<path d="M630.0,30.0 L770.0,30.0 L770.0,170.0 L630.0,170.0 Z" stroke="#e8e8ea" stroke-width="2" fill="none" stroke-linejoin="round" stroke-linecap="round"/>
<text x="608" y="192">rectangle</text>
<rect class="border" x="800.5" y="0.5" width="199" height="199"/>
<path d="M900.0,30.0 L970.0,100.0 L900.0,170.0 L830.0,100.0 Z" stroke="#e8e8ea" stroke-width="2" fill="none" stroke-linejoin="round" stroke-linecap="round"/>
<text x="808" y="192">rhombus (monk)</text>
<rect class="border" x="0.5" y="200.5" width="199" height="199"/>
<path d="M100.0,230.0 L170.0,300.0 L100.0,370.0 L30.0,300.0 Z" stroke="#e8e8ea" stroke-width="2" fill="none" stroke-linejoin="round" stroke-linecap="round"/>
<text x="8" y="392">diamond (charger)</text>
<rect class="border" x="200.5" y="200.5" width="199" height="199"/>
<path d="M258.0,230.0 L342.0,230.0 L370.0,370.0 L230.0,370.0 Z" stroke="#e8e8ea" stroke-width="2" fill="none" stroke-linejoin="round" stroke-linecap="round"/>
<text x="208" y="392">trapezoid (net)</text>
<rect class="border" x="400.5" y="200.5" width="199" height="199"/>
<path d="M500.0,233.4 L570.0,284.3 L543.3,366.6 L456.7,366.6 L430.0,284.3 Z" stroke="#e8e8ea" stroke-width="2" fill="none" stroke-linejoin="round" stroke-linecap="round"/>
<text x="408" y="392">pentagon</text>
<rect class="border" x="600.5" y="200.5" width="199" height="199"/>
<path d="M700.0,230.0 L760.6,265.0 L760.6,335.0 L700.0,370.0 L639.4,335.0 L639.4,265.0 Z" stroke="#e8e8ea" stroke-width="2" fill="none" stroke-linejoin="round" stroke-linecap="round"/>
<text x="608" y="392">hexagon</text>
<rect class="border" x="800.5" y="200.5" width="199" height="199"/>
<path d="M900.0,231.8 L956.1,258.8 L970.0,319.5 L931.2,368.2 L868.8,368.2 L830.0,319.5 L843.9,258.8 Z" stroke="#e8e8ea" stroke-width="2" fill="none" stroke-linejoin="round" stroke-linecap="round"/>
<text x="808" y="392">heptagon</text>
<rect class="border" x="0.5" y="400.5" width="199" height="199"/>
<path d="M100.0,430.0 L149.5,450.5 L170.0,500.0 L149.5,549.5 L100.0,570.0 L50.5,549.5 L30.0,500.0 L50.5,450.5 Z" stroke="#e8e8ea" stroke-width="2" fill="none" stroke-linejoin="round" stroke-linecap="round"/>
<text x="8" y="592">octagon</text>
<rect class="border" x="200.5" y="400.5" width="199" height="199"/>
<path d="M300.0,431.1 L345.7,447.7 L370.0,489.8 L361.6,537.7 L324.3,568.9 L275.7,568.9 L238.4,537.7 L230.0,489.8 L254.3,447.7 Z" stroke="#e8e8ea" stroke-width="2" fill="none" stroke-linejoin="round" stroke-linecap="round"/>
<text x="208" y="592">nonagon</text>
<rect class="border" x="400.5" y="400.5" width="199" height="199"/>
<path d="M500.0,430.0 L541.1,443.4 L566.6,478.4 L566.6,521.6 L541.1,556.6 L500.0,570.0 L458.9,556.6 L433.4,521.6 L433.4,478.4 L458.9,443.4 Z" stroke="#e8e8ea" stroke-width="2" fill="none" stroke-linejoin="round" stroke-linecap="round"/>
<text x="408" y="592">decagon</text>
<rect class="border" x="600.5" y="400.5" width="199" height="199"/>
<path d="M676.7,430.0 L723.3,430.0 L723.3,476.7 L770.0,476.7 L770.0,523.3 L723.3,523.3 L723.3,570.0 L676.7,570.0 L676.7,523.3 L630.0,523.3 L630.0,476.7 L676.7,476.7 Z" stroke="#e8a13a" stroke-width="2" fill="none" stroke-linejoin="round" stroke-linecap="round"/>
<text x="608" y="592">plusSign (heal)</text>
<rect class="border" x="800.5" y="400.5" width="199" height="199"/>
<path d="M900.0,430.0 L970.0,486.0 L925.2,486.0 L925.2,570.0 L874.8,570.0 L874.8,486.0 L830.0,486.0 Z" stroke="#e8a13a" stroke-width="2" fill="none" stroke-linejoin="round" stroke-linecap="round"/>
<text x="808" y="592">arrow (spear)</text>
<rect class="border" x="0.5" y="600.5" width="199" height="199"/>
<path d="M100.0,770.0 L170.0,714.0 L125.2,714.0 L125.2,630.0 L74.8,630.0 L74.8,714.0 L30.0,714.0 Z" stroke="#e8a13a" stroke-width="2" fill="none" stroke-linejoin="round" stroke-linecap="round"/>
<text x="8" y="792">arrowDown (debuff)</text>
<rect class="border" x="200.5" y="600.5" width="199" height="199"/>
<path d="M328.0,630.0 L272.0,693.0 L328.0,707.0 L272.0,770.0" stroke="#e8a13a" stroke-width="2" fill="none" stroke-linejoin="round" stroke-linecap="round"/>
<text x="208" y="792">bolt (scout)</text>
<rect class="border" x="400.5" y="600.5" width="199" height="199"/>
<path d="M500.0,630.0 L500.0,630.0 L500.1,630.1 L500.2,630.3 L500.3,630.6 L500.5,630.9 L500.7,631.2 L501.0,631.7 L501.3,632.2 L501.7,632.8 L502.0,633.4 L502.4,634.1 L502.9,634.9 L503.4,635.8 L503.9,636.7 L504.5,637.6 L505.0,638.7 L505.6,639.7 L506.3,640.9 L506.9,642.1 L507.6,643.4 L508.3,644.7 L509.1,646.1 L509.8,647.5 L510.6,649.0 L511.4,650.5 L512.2,652.1 L513.0,653.7 L513.8,655.4 L514.6,657.1 L515.4,658.9 L516.3,660.7 L517.1,662.5 L517.9,664.4 L518.7,666.3 L519.6,668.2 L520.4,670.2 L521.2,672.2 L521.9,674.2 L522.7,676.3 L523.5,678.4 L524.2,680.5 L524.9,682.6 L525.6,684.7 L526.3,686.9 L526.9,689.0 L527.6,691.2 L528.1,693.4 L528.7,695.6 L529.2,697.8 L529.7,700.0 L530.1,702.2 L530.6,704.4 L530.9,706.6 L531.3,708.8 L531.5,711.0 L531.8,713.1 L532.0,715.3 L532.1,717.4 L532.3,719.5 L532.3,721.6 L532.3,723.7 L532.3,725.8 L532.2,727.8 L532.1,729.8 L531.9,731.8 L531.7,733.7 L531.4,735.6 L531.1,737.5 L530.7,739.3 L530.3,741.1 L529.8,742.9 L529.3,744.6 L528.7,746.3 L528.1,747.9 L527.4,749.5 L526.7,751.0 L526.0,752.5 L525.2,753.9 L524.4,755.3 L523.5,756.6 L522.6,757.9 L521.6,759.1 L520.6,760.3 L519.6,761.3 L518.5,762.4 L517.5,763.3 L516.3,764.2 L515.2,765.1 L514.0,765.9 L512.8,766.6 L511.6,767.2 L510.4,767.8 L509.1,768.3 L507.8,768.8 L506.5,769.1 L505.3,769.4 L503.9,769.7 L502.6,769.9 L501.3,770.0 L500.0,770.0 L498.7,770.0 L497.4,769.9 L496.1,769.7 L494.7,769.4 L493.5,769.1 L492.2,768.8 L490.9,768.3 L489.6,767.8 L488.4,767.2 L487.2,766.6 L486.0,765.9 L484.8,765.1 L483.7,764.2 L482.5,763.3 L481.5,762.4 L480.4,761.3 L479.4,760.3 L478.4,759.1 L477.4,757.9 L476.5,756.6 L475.6,755.3 L474.8,753.9 L474.0,752.5 L473.3,751.0 L472.6,749.5 L471.9,747.9 L471.3,746.3 L470.7,744.6 L470.2,742.9 L469.7,741.1 L469.3,739.3 L468.9,737.5 L468.6,735.6 L468.3,733.7 L468.1,731.8 L467.9,729.8 L467.8,727.8 L467.7,725.8 L467.7,723.7 L467.7,721.6 L467.7,719.5 L467.9,717.4 L468.0,715.3 L468.2,713.1 L468.5,711.0 L468.7,708.8 L469.1,706.6 L469.4,704.4 L469.9,702.2 L470.3,700.0 L470.8,697.8 L471.3,695.6 L471.9,693.4 L472.4,691.2 L473.1,689.0 L473.7,686.9 L474.4,684.7 L475.1,682.6 L475.8,680.5 L476.5,678.4 L477.3,676.3 L478.1,674.2 L478.8,672.2 L479.6,670.2 L480.4,668.2 L481.3,666.3 L482.1,664.4 L482.9,662.5 L483.7,660.7 L484.6,658.9 L485.4,657.1 L486.2,655.4 L487.0,653.7 L487.8,652.1 L488.6,650.5 L489.4,649.0 L490.2,647.5 L490.9,646.1 L491.7,644.7 L492.4,643.4 L493.1,642.1 L493.7,640.9 L494.4,639.7 L495.0,638.7 L495.5,637.6 L496.1,636.7 L496.6,635.8 L497.1,634.9 L497.6,634.1 L498.0,633.4 L498.3,632.8 L498.7,632.2 L499.0,631.7 L499.3,631.2 L499.5,630.9 L499.7,630.6 L499.8,630.3 L499.9,630.1 L500.0,630.0 L500.0,630.0 Z" stroke="#e8a13a" stroke-width="2" fill="none" stroke-linejoin="round" stroke-linecap="round"/>
<text x="408" y="792">tear (alchemist)</text>
<rect class="border" x="600.5" y="600.5" width="199" height="199"/>
<path d="M651.5,638.3 L651.6,637.8 L651.9,637.3 L652.3,636.8 L653.0,636.2 L653.9,635.7 L654.9,635.3 L656.1,634.8 L657.5,634.3 L659.0,633.9 L660.8,633.4 L662.6,633.0 L664.6,632.6 L666.8,632.3 L669.1,631.9 L671.5,631.6 L674.0,631.3 L676.6,631.0 L679.3,630.8 L682.1,630.6 L685.0,630.4 L687.9,630.3 L690.9,630.1 L693.9,630.1 L697.0,630.0 L700.0,630.0 L703.0,630.0 L706.1,630.1 L709.1,630.1 L712.1,630.3 L715.0,630.4 L717.9,630.6 L720.7,630.8 L723.4,631.0 L726.0,631.3 L728.5,631.6 L730.9,631.9 L733.2,632.3 L735.4,632.6 L737.4,633.0 L739.2,633.4 L741.0,633.9 L742.5,634.3 L743.9,634.8 L745.1,635.3 L746.1,635.7 L747.0,636.2 L747.7,636.8 L748.1,637.3 L748.4,637.8 L748.5,638.3 L748.5,638.3 L748.5,642.2 L748.4,646.2 L748.3,650.1 L748.1,654.0 L747.9,657.8 L747.7,661.7 L747.3,665.5 L747.0,669.3 L746.6,673.1 L746.1,676.9 L745.6,680.6 L745.1,684.2 L744.5,687.9 L743.9,691.4 L743.2,695.0 L742.5,698.4 L741.8,701.8 L741.0,705.2 L740.1,708.4 L739.2,711.6 L738.3,714.8 L737.4,717.8 L736.4,720.8 L735.4,723.7 L734.3,726.5 L733.2,729.3 L732.1,731.9 L730.9,734.4 L729.7,736.9 L728.5,739.2 L727.3,741.5 L726.0,743.6 L724.7,745.7 L723.4,747.6 L722.0,749.5 L720.7,751.2 L719.3,752.8 L717.9,754.3 L716.4,755.7 L715.0,757.0 L713.5,758.1 L712.1,759.1 L710.6,760.1 L709.1,760.9 L707.6,761.5 L706.1,762.1 L704.6,762.5 L703.0,762.8 L701.5,763.0 L700.0,763.1 L700.0,770.0 L700.0,763.1 L698.5,763.0 L697.0,762.8 L695.4,762.5 L693.9,762.1 L692.4,761.5 L690.9,760.9 L689.4,760.1 L687.9,759.1 L686.5,758.1 L685.0,757.0 L683.6,755.7 L682.1,754.3 L680.7,752.8 L679.3,751.2 L678.0,749.5 L676.6,747.6 L675.3,745.7 L674.0,743.6 L672.7,741.5 L671.5,739.2 L670.3,736.9 L669.1,734.4 L667.9,731.9 L666.8,729.3 L665.7,726.5 L664.6,723.7 L663.6,720.8 L662.6,717.8 L661.7,714.8 L660.8,711.6 L659.9,708.4 L659.0,705.2 L658.2,701.8 L657.5,698.4 L656.8,695.0 L656.1,691.4 L655.5,687.9 L654.9,684.2 L654.4,680.6 L653.9,676.9 L653.4,673.1 L653.0,669.3 L652.7,665.5 L652.3,661.7 L652.1,657.8 L651.9,654.0 L651.7,650.1 L651.6,646.2 L651.5,642.2 L651.5,638.3 Z" stroke="#e8a13a" stroke-width="2" fill="none" stroke-linejoin="round" stroke-linecap="round"/>
<text x="608" y="792">shield (paladin)</text>
<rect class="border" x="800.5" y="600.5" width="199" height="199"/>
<path d="M900.0,630.0 L913.1,677.3 L960.6,665.0 L926.3,700.0 L960.6,735.0 L913.1,722.7 L900.0,770.0 L886.9,722.7 L839.4,735.0 L873.8,700.0 L839.4,665.0 L886.9,677.3 L900.0,630.0 Z" stroke="#e8a13a" stroke-width="2" fill="none" stroke-linejoin="round" stroke-linecap="round"/>
<text x="808" y="792">star (mage, 6-pt)</text>
<rect class="border" x="0.5" y="800.5" width="199" height="199"/>
<path d="M30.0,917.5 L30.0,916.4 L30.1,915.3 L30.3,914.2 L30.6,913.1 L30.9,912.0 L31.2,910.9 L31.7,909.9 L32.2,908.8 L32.8,907.7 L33.4,906.7 L34.1,905.6 L34.9,904.6 L35.8,903.6 L36.7,902.6 L37.6,901.6 L38.7,900.6 L39.7,899.7 L40.9,898.7 L42.1,897.8 L43.4,896.9 L44.7,896.0 L46.1,895.2 L47.5,894.4 L49.0,893.5 L50.5,892.8 L52.1,892.0 L53.7,891.2 L55.4,890.5 L57.1,889.8 L58.9,889.2 L60.7,888.6 L62.5,887.9 L64.4,887.4 L66.3,886.8 L68.2,886.3 L70.2,885.8 L72.2,885.4 L74.2,885.0 L76.3,884.6 L78.4,884.2 L80.5,883.9 L82.6,883.6 L84.7,883.3 L86.9,883.1 L89.0,882.9 L91.2,882.8 L93.4,882.7 L95.6,882.6 L97.8,882.5 L100.0,882.5 L102.2,882.5 L104.4,882.6 L106.6,882.7 L108.8,882.8 L111.0,882.9 L113.1,883.1 L115.3,883.3 L117.4,883.6 L119.5,883.9 L121.6,884.2 L123.7,884.6 L125.8,885.0 L127.8,885.4 L129.8,885.8 L131.8,886.3 L133.7,886.8 L135.6,887.4 L137.5,887.9 L139.3,888.6 L141.1,889.2 L142.9,889.8 L144.6,890.5 L146.3,891.2 L147.9,892.0 L149.5,892.8 L151.0,893.5 L152.5,894.4 L153.9,895.2 L155.3,896.0 L156.6,896.9 L157.9,897.8 L159.1,898.7 L160.3,899.7 L161.3,900.6 L162.4,901.6 L163.3,902.6 L164.2,903.6 L165.1,904.6 L165.9,905.6 L166.6,906.7 L167.2,907.7 L167.8,908.8 L168.3,909.9 L168.8,910.9 L169.1,912.0 L169.4,913.1 L169.7,914.2 L169.9,915.3 L170.0,916.4 L170.0,917.5" stroke="#e8a13a" stroke-width="2" fill="none" stroke-linejoin="round" stroke-linecap="round"/>
<text x="8" y="992">boomerang</text>
<rect class="border" x="200.5" y="800.5" width="199" height="199"/>
<path d="M300.0,830.0 L318.6,881.4 L370.0,900.0 L318.6,918.6 L300.0,970.0 L281.4,918.6 L230.0,900.0 L281.4,881.4 L300.0,830.0 Z" stroke="#e8a13a" stroke-width="2" fill="none" stroke-linejoin="round" stroke-linecap="round"/>
<text x="208" y="992">shuriken (ninja)</text>
<rect class="border" x="400.5" y="800.5" width="199" height="199"/>
<path d="M488.8,830.0 L511.2,830.0 L511.2,874.8 L500.0,891.6 L503.5,891.7 L507.0,892.1 L510.5,892.7 L513.8,893.5 L517.1,894.6 L520.3,895.9 L523.4,897.4 L526.3,899.1 L529.1,901.0 L531.7,903.1 L534.1,905.3 L536.2,907.8 L538.2,910.3 L539.9,913.0 L541.4,915.8 L542.6,918.7 L543.6,921.6 L544.2,924.7 L544.7,927.7 L544.8,930.8 L544.7,933.9 L544.2,936.9 L543.6,940.0 L542.6,942.9 L541.4,945.8 L539.9,948.6 L538.2,951.3 L536.2,953.8 L534.1,956.3 L531.7,958.5 L529.1,960.6 L526.3,962.5 L523.4,964.2 L520.3,965.7 L517.1,967.0 L513.8,968.1 L510.5,968.9 L507.0,969.5 L503.5,969.9 L500.0,970.0 L500.0,970.0 L496.5,969.9 L493.0,969.5 L489.5,968.9 L486.2,968.1 L482.9,967.0 L479.7,965.7 L476.6,964.2 L473.7,962.5 L470.9,960.6 L468.3,958.5 L465.9,956.3 L463.8,953.8 L461.8,951.3 L460.1,948.6 L458.6,945.8 L457.4,942.9 L456.4,940.0 L455.8,936.9 L455.3,933.9 L455.2,930.8 L455.3,927.7 L455.8,924.7 L456.4,921.6 L457.4,918.7 L458.6,915.8 L460.1,913.0 L461.8,910.3 L463.8,907.8 L465.9,905.3 L468.3,903.1 L470.9,901.0 L473.7,899.1 L476.6,897.4 L479.7,895.9 L482.9,894.6 L486.2,893.5 L489.5,892.7 L493.0,892.1 L496.5,891.7 L500.0,891.6 L488.8,874.8 Z" stroke="#e8a13a" stroke-width="2" fill="none" stroke-linejoin="round" stroke-linecap="round"/>
<text x="408" y="992">flask (alchemist)</text>
<rect class="border" x="600.5" y="800.5" width="199" height="199"/>
<path d="M630.0,900.0 L632.8,898.1 L635.6,896.1 L638.4,894.2 L641.2,892.3 L644.0,890.5 L646.8,888.7 L649.6,886.9 L652.4,885.2 L655.2,883.5 L658.0,881.9 L660.8,880.4 L663.6,878.9 L666.4,877.5 L669.2,876.3 L672.0,875.1 L674.8,874.0 L677.6,873.0 L680.4,872.1 L683.2,871.4 L686.0,870.7 L688.8,870.2 L691.6,869.7 L694.4,869.4 L697.2,869.3 L700.0,869.2 L702.8,869.3 L705.6,869.4 L708.4,869.7 L711.2,870.2 L714.0,870.7 L716.8,871.4 L719.6,872.1 L722.4,873.0 L725.2,874.0 L728.0,875.1 L730.8,876.3 L733.6,877.5 L736.4,878.9 L739.2,880.4 L742.0,881.9 L744.8,883.5 L747.6,885.2 L750.4,886.9 L753.2,888.7 L756.0,890.5 L758.8,892.3 L761.6,894.2 L764.4,896.1 L767.2,898.1 L770.0,900.0 L770.0,900.0 L767.2,901.9 L764.4,903.9 L761.6,905.8 L758.8,907.7 L756.0,909.5 L753.2,911.3 L750.4,913.1 L747.6,914.8 L744.8,916.5 L742.0,918.1 L739.2,919.6 L736.4,921.1 L733.6,922.5 L730.8,923.7 L728.0,924.9 L725.2,926.0 L722.4,927.0 L719.6,927.9 L716.8,928.6 L714.0,929.3 L711.2,929.8 L708.4,930.3 L705.6,930.6 L702.8,930.7 L700.0,930.8 L697.2,930.7 L694.4,930.6 L691.6,930.3 L688.8,929.8 L686.0,929.3 L683.2,928.6 L680.4,927.9 L677.6,927.0 L674.8,926.0 L672.0,924.9 L669.2,923.7 L666.4,922.5 L663.6,921.1 L660.8,919.6 L658.0,918.1 L655.2,916.5 L652.4,914.8 L649.6,913.1 L646.8,911.3 L644.0,909.5 L641.2,907.7 L638.4,905.8 L635.6,903.9 L632.8,901.9 L630.0,900.0 Z" stroke="#e8a13a" stroke-width="2" fill="none" stroke-linejoin="round" stroke-linecap="round"/>
<text x="608" y="992">eye (seer)</text>
<rect class="border" x="800.5" y="800.5" width="199" height="199"/>
<path d="M851.0,830.0 L949.0,830.0 L949.0,872.0 L911.2,872.0 L911.2,970.0 L888.8,970.0 L888.8,872.0 L851.0,872.0 Z" stroke="#e8a13a" stroke-width="2" fill="none" stroke-linejoin="round" stroke-linecap="round"/>
<text x="808" y="992">hammer (siege)</text>
<rect class="border" x="0.5" y="1000.5" width="199" height="199"/>
<path d="M30.0,1154.4 L170.0,1154.4 L170.0,1107.8 L146.7,1131.1 L134.2,1053.3 L118.7,1123.3 L100.0,1045.6 L81.3,1123.3 L65.8,1053.3 L53.3,1131.1 L30.0,1107.8 Z" stroke="#e8a13a" stroke-width="2" fill="none" stroke-linejoin="round" stroke-linecap="round"/>
<text x="8" y="1192">crown (commander)</text>
<rect class="border" x="200.5" y="1000.5" width="199" height="199"/>
<path d="M300.0,1030.0 L302.3,1030.3 L304.5,1031.2 L306.4,1032.6 L307.8,1034.5 L308.7,1036.7 L309.0,1039.0 L308.7,1041.4 L307.8,1043.5 L306.4,1045.4 L304.5,1046.9 L302.3,1047.8 L300.0,1048.1 L297.7,1047.8 L295.5,1046.9 L293.6,1045.4 L292.2,1043.5 L291.3,1041.4 L291.0,1039.0 L291.3,1036.7 L292.2,1034.5 L293.6,1032.6 L295.5,1031.2 L297.7,1030.3 L300.0,1030.0 L312.0,1049.6 L312.9,1052.6 L313.8,1055.6 L314.8,1058.6 L315.7,1061.6 L316.6,1064.6 L317.4,1067.6 L318.3,1070.6 L319.2,1073.7 L320.1,1076.7 L321.0,1079.7 L321.9,1082.7 L322.8,1085.7 L323.7,1088.7 L324.5,1091.7 L325.4,1094.7 L326.2,1097.7 L327.1,1100.8 L328.0,1103.8 L328.8,1106.8 L329.6,1109.8 L330.5,1112.8 L331.3,1115.8 L332.1,1118.8 L332.9,1121.8 L333.7,1124.8 L334.5,1127.8 L335.3,1130.9 L336.0,1133.9 L336.8,1136.9 L337.5,1139.9 L338.3,1142.9 L339.0,1145.9 L339.7,1148.9 L340.4,1151.9 L341.1,1154.9 L341.8,1158.0 L342.5,1161.0 L343.2,1164.0 L343.8,1167.0 L344.4,1170.0 L357.2,1170.0 L242.8,1170.0 L255.6,1170.0 L256.2,1167.0 L256.8,1164.0 L257.5,1161.0 L258.2,1158.0 L258.9,1154.9 L259.6,1151.9 L260.3,1148.9 L261.0,1145.9 L261.7,1142.9 L262.5,1139.9 L263.2,1136.9 L264.0,1133.9 L264.7,1130.9 L265.5,1127.8 L266.3,1124.8 L267.1,1121.8 L267.9,1118.8 L268.7,1115.8 L269.5,1112.8 L270.4,1109.8 L271.2,1106.8 L272.0,1103.8 L272.9,1100.8 L273.8,1097.7 L274.6,1094.7 L275.5,1091.7 L276.3,1088.7 L277.2,1085.7 L278.1,1082.7 L279.0,1079.7 L279.9,1076.7 L280.8,1073.7 L281.7,1070.6 L282.6,1067.6 L283.4,1064.6 L284.3,1061.6 L285.2,1058.6 L286.2,1055.6 L287.1,1052.6 L288.0,1049.6 Z" stroke="#e8a13a" stroke-width="2" fill="none" stroke-linejoin="round" stroke-linecap="round"/>
<text x="208" y="1192">bell (bard)</text>
<rect class="border" x="400.5" y="1000.5" width="199" height="199"/>
<path d="M500.0,1030.0 L500.6,1032.3 L501.7,1034.7 L503.0,1037.0 L504.5,1039.3 L506.1,1041.7 L507.8,1044.0 L509.7,1046.3 L511.6,1048.7 L513.5,1051.0 L515.5,1053.3 L517.5,1055.7 L519.5,1058.0 L521.4,1060.3 L523.3,1062.7 L525.2,1065.0 L526.9,1067.3 L528.6,1069.7 L530.2,1072.0 L531.7,1074.3 L533.1,1076.7 L534.3,1079.0 L535.4,1081.3 L536.3,1083.7 L537.1,1086.0 L537.7,1088.3 L538.2,1090.7 L538.5,1093.0 L538.7,1095.3 L538.6,1097.7 L538.5,1100.0 L538.1,1102.3 L537.7,1104.7 L537.0,1107.0 L536.3,1109.3 L535.4,1111.7 L534.3,1114.0 L533.2,1116.3 L532.0,1118.7 L530.7,1121.0 L529.3,1123.3 L527.8,1125.7 L526.2,1128.0 L524.7,1130.3 L523.1,1132.7 L521.4,1135.0 L519.8,1137.3 L518.1,1139.7 L516.5,1142.0 L514.9,1144.3 L513.3,1146.7 L511.8,1149.0 L510.3,1151.3 L508.9,1153.7 L507.6,1156.0 L506.4,1158.3 L505.3,1160.7 L504.4,1163.0 L503.5,1165.3 L503.0,1167.7 L502.8,1170.0 L497.2,1170.0 L497.0,1167.7 L496.5,1165.3 L495.6,1163.0 L494.7,1160.7 L493.6,1158.3 L492.4,1156.0 L491.1,1153.7 L489.7,1151.3 L488.2,1149.0 L486.7,1146.7 L485.1,1144.3 L483.5,1142.0 L481.9,1139.7 L480.2,1137.3 L478.6,1135.0 L476.9,1132.7 L475.3,1130.3 L473.8,1128.0 L472.2,1125.7 L470.7,1123.3 L469.3,1121.0 L468.0,1118.7 L466.8,1116.3 L465.7,1114.0 L464.6,1111.7 L463.7,1109.3 L463.0,1107.0 L462.3,1104.7 L461.9,1102.3 L461.5,1100.0 L461.4,1097.7 L461.3,1095.3 L461.5,1093.0 L461.8,1090.7 L462.3,1088.3 L462.9,1086.0 L463.7,1083.7 L464.6,1081.3 L465.7,1079.0 L466.9,1076.7 L468.3,1074.3 L469.8,1072.0 L471.4,1069.7 L473.1,1067.3 L474.8,1065.0 L476.7,1062.7 L478.6,1060.3 L480.5,1058.0 L482.5,1055.7 L484.5,1053.3 L486.5,1051.0 L488.4,1048.7 L490.3,1046.3 L492.2,1044.0 L493.9,1041.7 L495.5,1039.3 L497.0,1037.0 L498.3,1034.7 L499.4,1032.3 L500.0,1030.0 Z" stroke="#6fb5c9" stroke-width="2" fill="none" stroke-linejoin="round" stroke-linecap="round"/>
<text x="408" y="1192">flame (fire mod)</text>
<rect class="border" x="600.5" y="1000.5" width="199" height="199"/>
<path d="M630.0,1100.0 L631.4,1102.4 L632.8,1104.7 L634.2,1107.0 L635.6,1109.3 L637.0,1111.4 L638.4,1113.5 L639.8,1115.5 L641.2,1117.3 L642.6,1118.9 L644.0,1120.4 L645.4,1121.7 L646.8,1122.8 L648.2,1123.7 L649.6,1124.4 L651.0,1124.9 L652.4,1125.2 L653.8,1125.2 L655.2,1125.0 L656.6,1124.6 L658.0,1124.0 L659.4,1123.1 L660.8,1122.1 L662.2,1120.8 L663.6,1119.4 L665.0,1117.8 L666.4,1116.1 L667.8,1114.2 L669.2,1112.1 L670.6,1110.0 L672.0,1107.8 L673.4,1105.5 L674.8,1103.2 L676.2,1100.8 L677.6,1098.4 L679.0,1096.1 L680.4,1093.7 L681.8,1091.5 L683.2,1089.3 L684.6,1087.2 L686.0,1085.2 L687.4,1083.3 L688.8,1081.6 L690.2,1080.1 L691.6,1078.7 L693.0,1077.6 L694.4,1076.6 L695.8,1075.8 L697.2,1075.3 L698.6,1074.9 L700.0,1074.8 L701.4,1074.9 L702.8,1075.3 L704.2,1075.8 L705.6,1076.6 L707.0,1077.6 L708.4,1078.7 L709.8,1080.1 L711.2,1081.6 L712.6,1083.3 L714.0,1085.2 L715.4,1087.2 L716.8,1089.3 L718.2,1091.5 L719.6,1093.7 L721.0,1096.1 L722.4,1098.4 L723.8,1100.8 L725.2,1103.2 L726.6,1105.5 L728.0,1107.8 L729.4,1110.0 L730.8,1112.1 L732.2,1114.2 L733.6,1116.1 L735.0,1117.8 L736.4,1119.4 L737.8,1120.8 L739.2,1122.1 L740.6,1123.1 L742.0,1124.0 L743.4,1124.6 L744.8,1125.0 L746.2,1125.2 L747.6,1125.2 L749.0,1124.9 L750.4,1124.4 L751.8,1123.7 L753.2,1122.8 L754.6,1121.7 L756.0,1120.4 L757.4,1118.9 L758.8,1117.3 L760.2,1115.5 L761.6,1113.5 L763.0,1111.4 L764.4,1109.3 L765.8,1107.0 L767.2,1104.7 L768.6,1102.4 L770.0,1100.0" stroke="#6fb5c9" stroke-width="2" fill="none" stroke-linejoin="round" stroke-linecap="round"/>
<text x="608" y="1192">wave (water mod)</text>
<rect class="border" x="800.5" y="1000.5" width="199" height="199"/>
<path d="M900.0,1030.0 L906.8,1032.8 L910.6,1035.6 L913.5,1038.4 L916.0,1041.2 L918.1,1044.0 L919.9,1046.8 L921.5,1049.6 L922.9,1052.4 L924.0,1055.2 L925.0,1058.0 L925.8,1060.8 L926.5,1063.6 L927.0,1066.4 L927.5,1069.2 L927.7,1072.0 L927.9,1074.8 L928.0,1077.6 L928.0,1080.4 L927.8,1083.2 L927.6,1086.0 L927.3,1088.8 L927.0,1091.6 L926.5,1094.4 L926.0,1097.2 L925.4,1100.0 L924.8,1102.8 L924.1,1105.6 L923.4,1108.4 L922.6,1111.2 L921.7,1114.0 L920.8,1116.8 L919.9,1119.6 L919.0,1122.4 L918.0,1125.2 L916.9,1128.0 L915.9,1130.8 L914.8,1133.6 L913.7,1136.4 L912.6,1139.2 L911.5,1142.0 L910.4,1144.8 L909.2,1147.6 L908.1,1150.4 L906.9,1153.2 L905.8,1156.0 L904.6,1158.8 L903.5,1161.6 L902.3,1164.4 L901.1,1167.2 L900.0,1170.0 L900.0,1170.0 L898.9,1167.2 L897.7,1164.4 L896.5,1161.6 L895.4,1158.8 L894.2,1156.0 L893.1,1153.2 L891.9,1150.4 L890.8,1147.6 L889.6,1144.8 L888.5,1142.0 L887.4,1139.2 L886.3,1136.4 L885.2,1133.6 L884.1,1130.8 L883.1,1128.0 L882.0,1125.2 L881.0,1122.4 L880.1,1119.6 L879.2,1116.8 L878.3,1114.0 L877.4,1111.2 L876.6,1108.4 L875.9,1105.6 L875.2,1102.8 L874.6,1100.0 L874.0,1097.2 L873.5,1094.4 L873.0,1091.6 L872.7,1088.8 L872.4,1086.0 L872.2,1083.2 L872.0,1080.4 L872.0,1077.6 L872.1,1074.8 L872.3,1072.0 L872.5,1069.2 L873.0,1066.4 L873.5,1063.6 L874.2,1060.8 L875.0,1058.0 L876.0,1055.2 L877.1,1052.4 L878.5,1049.6 L880.1,1046.8 L881.9,1044.0 L884.0,1041.2 L886.5,1038.4 L889.4,1035.6 L893.2,1032.8 L900.0,1030.0 Z" stroke="#6fb5c9" stroke-width="2" fill="none" stroke-linejoin="round" stroke-linecap="round"/>
<text x="808" y="1192">feather (wind mod)</text>
<rect class="border" x="0.5" y="1200.5" width="199" height="199"/>
<path d="M100.0,1230.0 L108.4,1285.5 L160.6,1265.0 L116.8,1300.0 L160.6,1335.0 L108.4,1314.5 L100.0,1370.0 L91.6,1314.5 L39.4,1335.0 L83.2,1300.0 L39.4,1265.0 L91.6,1285.5 L100.0,1230.0 Z" stroke="#6fb5c9" stroke-width="2" fill="none" stroke-linejoin="round" stroke-linecap="round"/>
<text x="8" y="1392">snowflake (ice mod)</text>
<rect class="border" x="200.5" y="1200.5" width="199" height="199"/>
<path d="M350.7,1349.5 L348.3,1351.8 L345.8,1353.9 L343.2,1356.0 L340.6,1357.9 L337.8,1359.7 L334.9,1361.3 L332.0,1362.9 L329.0,1364.3 L325.9,1365.5 L322.8,1366.6 L319.7,1367.5 L316.5,1368.3 L313.2,1369.0 L310.0,1369.5 L306.7,1369.8 L303.4,1370.0 L300.1,1370.0 L296.8,1369.9 L293.5,1369.6 L290.2,1369.1 L287.0,1368.6 L283.8,1367.8 L280.6,1366.9 L277.5,1365.9 L274.4,1364.7 L271.4,1363.3 L268.4,1361.9 L265.6,1360.3 L262.8,1358.5 L260.1,1356.6 L257.4,1354.6 L254.9,1352.5 L252.5,1350.3 L250.2,1347.9 L248.0,1345.5 L245.9,1342.9 L243.9,1340.3 L242.1,1337.5 L240.4,1334.7 L238.8,1331.8 L237.4,1328.8 L236.1,1325.8 L235.0,1322.7 L234.0,1319.5 L233.1,1316.3 L232.4,1313.1 L231.9,1309.9 L231.5,1306.6 L231.3,1303.3 L231.2,1300.0 L231.3,1296.7 L231.5,1293.4 L231.9,1290.1 L232.4,1286.9 L233.1,1283.7 L234.0,1280.5 L235.0,1277.3 L236.1,1274.2 L237.4,1271.2 L238.8,1268.2 L240.4,1265.3 L242.1,1262.5 L243.9,1259.7 L245.9,1257.1 L248.0,1254.5 L250.2,1252.1 L252.5,1249.7 L254.9,1247.5 L257.4,1245.4 L260.1,1243.4 L262.8,1241.5 L265.6,1239.7 L268.4,1238.1 L271.4,1236.7 L274.4,1235.3 L277.5,1234.1 L280.6,1233.1 L283.8,1232.2 L287.0,1231.4 L290.2,1230.9 L293.5,1230.4 L296.8,1230.1 L300.1,1230.0 L303.4,1230.0 L306.7,1230.2 L310.0,1230.5 L313.2,1231.0 L316.5,1231.7 L319.7,1232.5 L322.8,1233.4 L325.9,1234.5 L329.0,1235.7 L332.0,1237.1 L334.9,1238.7 L337.8,1240.3 L340.6,1242.1 L343.2,1244.0 L345.8,1246.1 L348.3,1248.2 L350.7,1250.5 L368.8,1260.4 L366.9,1258.6 L364.9,1256.8 L362.8,1255.2 L360.7,1253.7 L358.5,1252.2 L356.2,1250.9 L353.8,1249.7 L351.4,1248.6 L349.0,1247.6 L346.5,1246.7 L344.0,1246.0 L341.4,1245.3 L338.8,1244.8 L336.2,1244.4 L333.6,1244.2 L331.0,1244.0 L328.3,1244.0 L325.7,1244.1 L323.1,1244.3 L320.4,1244.7 L317.8,1245.2 L315.3,1245.8 L312.7,1246.5 L310.2,1247.3 L307.8,1248.3 L305.4,1249.3 L303.0,1250.5 L300.7,1251.8 L298.5,1253.2 L296.3,1254.7 L294.2,1256.3 L292.2,1258.0 L290.2,1259.8 L288.4,1261.7 L286.6,1263.6 L285.0,1265.7 L283.4,1267.8 L281.9,1270.0 L280.6,1272.3 L279.3,1274.6 L278.2,1277.0 L277.1,1279.4 L276.2,1281.9 L275.4,1284.4 L274.7,1286.9 L274.2,1289.5 L273.8,1292.1 L273.4,1294.7 L273.3,1297.4 L273.2,1300.0 L273.3,1302.6 L273.4,1305.3 L273.8,1307.9 L274.2,1310.5 L274.7,1313.1 L275.4,1315.6 L276.2,1318.1 L277.1,1320.6 L278.2,1323.0 L279.3,1325.4 L280.6,1327.7 L281.9,1330.0 L283.4,1332.2 L285.0,1334.3 L286.6,1336.4 L288.4,1338.3 L290.2,1340.2 L292.2,1342.0 L294.2,1343.7 L296.3,1345.3 L298.5,1346.8 L300.7,1348.2 L303.0,1349.5 L305.4,1350.7 L307.8,1351.7 L310.2,1352.7 L312.7,1353.5 L315.3,1354.2 L317.8,1354.8 L320.4,1355.3 L323.1,1355.7 L325.7,1355.9 L328.3,1356.0 L331.0,1356.0 L333.6,1355.8 L336.2,1355.6 L338.8,1355.2 L341.4,1354.7 L344.0,1354.0 L346.5,1353.3 L349.0,1352.4 L351.4,1351.4 L353.8,1350.3 L356.2,1349.1 L358.5,1347.8 L360.7,1346.3 L362.8,1344.8 L364.9,1343.2 L366.9,1341.4 L368.8,1339.6" stroke="#6fb5c9" stroke-width="2" fill="none" stroke-linejoin="round" stroke-linecap="round"/>
<text x="208" y="1392">crescent (shadow)</text>
<rect class="border" x="400.5" y="1200.5" width="199" height="199"/>
<path d="M500.0,1230.0 L516.1,1261.2 L549.5,1250.5 L538.8,1283.9 L570.0,1300.0 L538.8,1316.1 L549.5,1349.5 L516.1,1338.8 L500.0,1370.0 L483.9,1338.8 L450.5,1349.5 L461.2,1316.1 L430.0,1300.0 L461.2,1283.9 L450.5,1250.5 L483.9,1261.2 Z" stroke="#6fb5c9" stroke-width="2" fill="none" stroke-linejoin="round" stroke-linecap="round"/>
<text x="408" y="1392">sun (holy mod)</text>
<rect class="border" x="600.5" y="1200.5" width="199" height="199"/>
<path d="M638.8,1291.3 L638.8,1288.0 L639.1,1284.8 L639.5,1281.7 L640.1,1278.5 L640.8,1275.4 L641.7,1272.3 L642.8,1269.3 L644.0,1266.3 L645.4,1263.4 L647.0,1260.6 L648.6,1257.9 L650.4,1255.2 L652.4,1252.7 L654.5,1250.3 L656.7,1247.9 L659.0,1245.7 L661.5,1243.6 L664.0,1241.7 L666.6,1239.9 L669.4,1238.2 L672.2,1236.7 L675.1,1235.3 L678.0,1234.1 L681.1,1233.0 L684.1,1232.1 L687.3,1231.3 L690.4,1230.8 L693.6,1230.3 L696.8,1230.1 L700.0,1230.0 L703.2,1230.1 L706.4,1230.3 L709.6,1230.8 L712.7,1231.3 L715.9,1232.1 L718.9,1233.0 L722.0,1234.1 L724.9,1235.3 L727.8,1236.7 L730.6,1238.2 L733.4,1239.9 L736.0,1241.7 L738.5,1243.6 L741.0,1245.7 L743.3,1247.9 L745.5,1250.3 L747.6,1252.7 L749.6,1255.2 L751.4,1257.9 L753.0,1260.6 L754.6,1263.4 L756.0,1266.3 L757.2,1269.3 L758.3,1272.3 L759.2,1275.4 L759.9,1278.5 L760.5,1281.7 L760.9,1284.8 L761.2,1288.0 L761.3,1291.3 L761.3,1291.3 L761.3,1335.0 L738.5,1340.3 L731.5,1329.8 L738.5,1322.8 L721.0,1347.3 L721.0,1361.3 L714.0,1370.0 L707.0,1361.3 L700.0,1370.0 L693.0,1361.3 L686.0,1370.0 L679.0,1361.3 L679.0,1347.3 L661.5,1322.8 L668.5,1329.8 L661.5,1340.3 L638.8,1335.0 L638.8,1291.3 Z" stroke="#6fb5c9" stroke-width="2" fill="none" stroke-linejoin="round" stroke-linecap="round"/>
<text x="608" y="1392">skull (necro mod)</text>
<rect class="border" x="800.5" y="1200.5" width="199" height="199"/>
<path d="M830.0,1230.0 L970.0,1370.0 L830.0,1370.0 L970.0,1230.0 Z" stroke="#6fb5c9" stroke-width="2" fill="none" stroke-linejoin="round" stroke-linecap="round"/>
<text x="808" y="1392">hourglass (time)</text>
<rect class="border" x="0.5" y="1400.5" width="199" height="199"/>
<path d="M100.0,1430.0 L101.6,1430.1 L103.1,1430.5 L104.5,1431.1 L105.8,1431.9 L107.0,1432.9 L108.0,1434.1 L108.8,1435.4 L109.4,1436.8 L109.8,1438.4 L109.9,1439.9 L109.8,1441.5 L109.4,1443.0 L108.8,1444.4 L108.0,1445.7 L107.0,1446.9 L105.8,1447.9 L104.5,1448.7 L103.1,1449.3 L101.6,1449.7 L100.0,1449.8 L98.4,1449.7 L96.9,1449.3 L95.5,1448.7 L94.2,1447.9 L93.0,1446.9 L92.0,1445.7 L91.2,1444.4 L90.6,1443.0 L90.2,1441.5 L90.1,1439.9 L90.2,1438.4 L90.6,1436.8 L91.2,1435.4 L92.0,1434.1 L93.0,1432.9 L94.2,1431.9 L95.5,1431.1 L96.9,1430.5 L98.4,1430.1 L100.0,1430.0 L100.0,1449.8 L100.0,1464.7 L131.0,1464.7 L131.0,1474.6 L105.0,1474.6 L105.0,1539.0 L137.2,1545.2 L143.4,1563.8 L131.0,1570.0 L106.2,1563.8 L93.8,1563.8 L69.0,1570.0 L56.6,1563.8 L62.8,1545.2 L95.0,1539.0 L95.0,1474.6 L69.0,1474.6 L69.0,1464.7 L100.0,1464.7 Z" stroke="#6fb5c9" stroke-width="2" fill="none" stroke-linejoin="round" stroke-linecap="round"/>
<text x="8" y="1592">anchor (root mod)</text>
<rect class="border" x="200.5" y="1400.5" width="199" height="199"/>
<path d="M300.0,1467.0 L300.0,1466.9 L300.0,1466.7 L300.1,1466.2 L300.1,1465.6 L300.3,1464.9 L300.5,1463.9 L300.7,1462.9 L301.1,1461.7 L301.5,1460.4 L302.1,1459.0 L302.7,1457.5 L303.5,1456.0 L304.4,1454.4 L305.4,1452.7 L306.5,1451.1 L307.8,1449.5 L309.2,1447.9 L310.8,1446.3 L312.4,1444.8 L314.2,1443.4 L316.1,1442.1 L318.1,1440.9 L320.2,1439.8 L322.5,1438.9 L324.7,1438.1 L327.1,1437.5 L329.5,1437.1 L332.0,1436.8 L334.5,1436.7 L337.1,1436.8 L339.6,1437.1 L342.1,1437.6 L344.6,1438.3 L347.1,1439.2 L349.5,1440.2 L351.9,1441.4 L354.1,1442.8 L356.3,1444.4 L358.3,1446.1 L360.2,1447.9 L362.0,1449.9 L363.6,1451.9 L365.1,1454.1 L366.3,1456.4 L367.4,1458.8 L368.4,1461.2 L369.1,1463.7 L369.6,1466.2 L369.9,1468.8 L370.0,1471.4 L369.9,1474.0 L369.6,1476.6 L369.1,1479.3 L368.4,1481.9 L367.4,1484.5 L366.3,1487.1 L365.1,1489.7 L363.6,1492.2 L362.0,1494.7 L360.2,1497.2 L358.3,1499.7 L356.3,1502.1 L354.1,1504.5 L351.9,1506.8 L349.5,1509.1 L347.1,1511.4 L344.6,1513.7 L342.1,1515.9 L339.6,1518.2 L337.1,1520.3 L334.5,1522.5 L332.0,1524.6 L329.5,1526.8 L327.1,1528.9 L324.7,1530.9 L322.5,1533.0 L320.2,1535.0 L318.1,1537.0 L316.1,1538.9 L314.2,1540.8 L312.4,1542.7 L310.8,1544.5 L309.2,1546.3 L307.8,1548.0 L306.5,1549.7 L305.4,1551.3 L304.4,1552.8 L303.5,1554.3 L302.7,1555.6 L302.1,1556.9 L301.5,1558.1 L301.1,1559.1 L300.7,1560.1 L300.5,1560.9 L300.3,1561.6 L300.1,1562.2 L300.1,1562.7 L300.0,1563.0 L300.0,1563.2 L300.0,1563.3 L300.0,1563.2 L300.0,1563.0 L299.9,1562.7 L299.9,1562.2 L299.7,1561.6 L299.5,1560.9 L299.3,1560.1 L298.9,1559.1 L298.5,1558.1 L297.9,1556.9 L297.3,1555.6 L296.5,1554.3 L295.6,1552.8 L294.6,1551.3 L293.5,1549.7 L292.2,1548.0 L290.8,1546.3 L289.2,1544.5 L287.6,1542.7 L285.8,1540.8 L283.9,1538.9 L281.9,1537.0 L279.8,1535.0 L277.5,1533.0 L275.3,1530.9 L272.9,1528.9 L270.5,1526.8 L268.0,1524.6 L265.5,1522.5 L262.9,1520.3 L260.4,1518.2 L257.9,1515.9 L255.4,1513.7 L252.9,1511.4 L250.5,1509.1 L248.1,1506.8 L245.9,1504.5 L243.7,1502.1 L241.7,1499.7 L239.8,1497.2 L238.0,1494.7 L236.4,1492.2 L234.9,1489.7 L233.7,1487.1 L232.6,1484.5 L231.6,1481.9 L230.9,1479.3 L230.4,1476.6 L230.1,1474.0 L230.0,1471.4 L230.1,1468.8 L230.4,1466.2 L230.9,1463.7 L231.6,1461.2 L232.6,1458.8 L233.7,1456.4 L234.9,1454.1 L236.4,1451.9 L238.0,1449.9 L239.8,1447.9 L241.7,1446.1 L243.7,1444.4 L245.9,1442.8 L248.1,1441.4 L250.5,1440.2 L252.9,1439.2 L255.4,1438.3 L257.9,1437.6 L260.4,1437.1 L262.9,1436.8 L265.5,1436.7 L268.0,1436.8 L270.5,1437.1 L272.9,1437.5 L275.3,1438.1 L277.5,1438.9 L279.8,1439.8 L281.9,1440.9 L283.9,1442.1 L285.8,1443.4 L287.6,1444.8 L289.2,1446.3 L290.8,1447.9 L292.2,1449.5 L293.5,1451.1 L294.6,1452.7 L295.6,1454.4 L296.5,1456.0 L297.3,1457.5 L297.9,1459.0 L298.5,1460.4 L298.9,1461.7 L299.3,1462.9 L299.5,1463.9 L299.7,1464.9 L299.9,1465.6 L299.9,1466.2 L300.0,1466.7 L300.0,1466.9 L300.0,1467.0 Z" stroke="#6fb5c9" stroke-width="2" fill="none" stroke-linejoin="round" stroke-linecap="round"/>
<text x="208" y="1592">heart (lifesteal)</text>
<rect class="border" x="400.5" y="1400.5" width="199" height="199"/>
<path d="M494.5,1509.4 L494.8,1509.6 L495.2,1510.0 L495.5,1510.3 L495.8,1510.7 L496.1,1511.1 L496.3,1511.6 L496.5,1512.1 L496.6,1512.7 L496.7,1513.2 L496.8,1513.8 L496.8,1514.4 L496.7,1515.1 L496.6,1515.7 L496.5,1516.4 L496.2,1517.0 L495.9,1517.7 L495.6,1518.3 L495.2,1518.9 L494.7,1519.6 L494.2,1520.1 L493.6,1520.7 L493.0,1521.2 L492.3,1521.7 L491.5,1522.2 L490.7,1522.6 L489.8,1522.9 L488.9,1523.2 L488.0,1523.5 L487.0,1523.6 L486.0,1523.7 L485.0,1523.8 L483.9,1523.7 L482.9,1523.6 L481.8,1523.4 L480.7,1523.1 L479.6,1522.8 L478.6,1522.3 L477.5,1521.8 L476.4,1521.2 L475.4,1520.5 L474.4,1519.7 L473.5,1518.8 L472.6,1517.9 L471.7,1516.9 L471.0,1515.8 L470.2,1514.6 L469.6,1513.4 L469.0,1512.1 L468.5,1510.8 L468.0,1509.4 L467.7,1507.9 L467.5,1506.5 L467.3,1504.9 L467.3,1503.4 L467.4,1501.8 L467.5,1500.2 L467.8,1498.6 L468.2,1497.0 L468.7,1495.4 L469.3,1493.9 L470.0,1492.3 L470.9,1490.8 L471.8,1489.3 L472.9,1487.9 L474.1,1486.5 L475.3,1485.2 L476.7,1483.9 L478.2,1482.7 L479.7,1481.7 L481.4,1480.7 L483.1,1479.8 L484.9,1479.0 L486.8,1478.3 L488.7,1477.7 L490.7,1477.3 L492.7,1477.0 L494.8,1476.8 L496.9,1476.8 L499.0,1476.8 L501.2,1477.1 L503.3,1477.4 L505.5,1478.0 L507.6,1478.6 L509.7,1479.4 L511.8,1480.4 L513.8,1481.5 L515.8,1482.7 L517.7,1484.1 L519.5,1485.6 L521.2,1487.2 L522.9,1489.0 L524.4,1490.8 L525.9,1492.8 L527.2,1494.9 L528.4,1497.1 L529.5,1499.4 L530.4,1501.8 L531.1,1504.3 L531.8,1506.8 L532.2,1509.4 L532.5,1512.0 L532.6,1514.7 L532.6,1517.4 L532.4,1520.1 L532.0,1522.8 L531.4,1525.5 L530.7,1528.2 L529.7,1530.9 L528.6,1533.5 L527.3,1536.0 L525.9,1538.5 L524.3,1540.9 L522.5,1543.2 L520.5,1545.5 L518.4,1547.6 L516.2,1549.6 L513.8,1551.4 L511.3,1553.1 L508.6,1554.7 L505.9,1556.1 L503.0,1557.3 L500.0,1558.3 L497.0,1559.2 L493.9,1559.9 L490.7,1560.4 L487.5,1560.6 L484.2,1560.7 L480.9,1560.6 L477.6,1560.2 L474.4,1559.7 L471.1,1558.9 L467.9,1557.9 L464.7,1556.7 L461.6,1555.3 L458.5,1553.7 L455.6,1551.9 L452.7,1549.9 L450.0,1547.6 L447.3,1545.3 L444.9,1542.7 L442.5,1539.9 L440.4,1537.0 L438.4,1534.0 L436.6,1530.8 L435.0,1527.5 L433.6,1524.0 L432.5,1520.5 L431.5,1516.9 L430.8,1513.2 L430.3,1509.4 L430.0,1505.6 L430.0,1501.7 L430.2,1497.9 L430.7,1494.0 L431.4,1490.1 L432.4,1486.3 L433.6,1482.5 L435.1,1478.8 L436.8,1475.2 L438.8,1471.7 L440.9,1468.2 L443.3,1464.9 L446.0,1461.8 L448.8,1458.8 L451.8,1455.9 L455.1,1453.3 L458.5,1450.8 L462.1,1448.6 L465.8,1446.5 L469.7,1444.7 L473.7,1443.2 L477.8,1441.9 L482.0,1440.8 L486.3,1440.0 L490.7,1439.5 L495.1,1439.3 L499.5,1439.3 L504.0,1439.7 L508.4,1440.3 L512.9,1441.1 L517.2,1442.3 L521.6,1443.8 L525.8,1445.5 L529.9,1447.5 L534.0,1449.8 L537.9,1452.4 L541.6,1455.2 L545.2,1458.2 L548.6,1461.5 L551.8,1465.0 L554.8,1468.7 L557.5,1472.6 L560.1,1476.7 L562.3,1481.0 L564.3,1485.5 L566.0,1490.0 L567.5,1494.7 L568.6,1499.5 L569.5,1504.4 L570.0,1509.4" stroke="#6fb5c9" stroke-width="2" fill="none" stroke-linejoin="round" stroke-linecap="round"/>
<text x="408" y="1592">spiral (confusion)</text>
<rect x="0" y="1568" width="1000" height="32" fill="#15151e"/>
<text x="20" y="1582" fill="#e8e8ea">■ geometric unit</text>
<text x="200" y="1582" fill="#e8a13a">■ symbol / dual-role unit</text>
<text x="430" y="1582" fill="#6fb5c9">■ modifier source (inner-only)</text>
</svg>