<svg xmlns="http://www.w3.org/2000/svg" viewBox="0 0 1000 2200" width="1000" height="2200">
<rect width="1000" height="2200" fill="#0a0a12"/>
<style>text { font-family: ui-monospace, monospace; font-size: 11px; fill: #c4c4c8; } .border { stroke: #2a2a36; fill: none; }</style>
<rect class="border" x="0.5" y="0.5" width="199" height="199"/>
<path d="M100.0,39.4 L170.0,160.6 L30.0,160.6 Z" stroke="#e8e8ea" stroke-width="2" fill="none" stroke-linejoin="round" stroke-linecap="round"/>
<text x="8" y="192">triangle</text>
<rect class="border" x="200.5" y="0.5" width="199" height="199"/>
<path d="M370.0,100.0 L369.7,106.9 L368.7,113.7 L367.0,120.3 L364.7,126.8 L361.7,133.0 L358.2,138.9 L354.1,144.4 L349.5,149.5 L344.4,154.1 L338.9,158.2 L333.0,161.7 L326.8,164.7 L320.3,167.0 L313.7,168.7 L306.9,169.7 L300.0,170.0 L293.1,169.7 L286.3,168.7 L279.7,167.0 L273.2,164.7 L267.0,161.7 L261.1,158.2 L255.6,154.1 L250.5,149.5 L245.9,144.4 L241.8,138.9 L238.3,133.0 L235.3,126.8 L233.0,120.3 L231.3,113.7 L230.3,106.9 L230.0,100.0 L230.3,93.1 L231.3,86.3 L233.0,79.7 L235.3,73.2 L238.3,67.0 L241.8,61.1 L245.9,55.6 L250.5,50.5 L255.6,45.9 L261.1,41.8 L267.0,38.3 L273.2,35.3 L279.7,33.0 L286.3,31.3 L293.1,30.3 L300.0,30.0 L306.9,30.3 L313.7,31.3 L320.3,33.0 L326.8,35.3 L333.0,38.3 L338.9,41.8 L344.4,45.9 L349.5,50.5 L354.1,55.6 L358.2,61.1 L361.7,67.0 L364.7,73.2 L367.0,79.7 L368.7,86.3 L369.7,93.1 Z" stroke="#e8e8ea" stroke-width="2" fill="none" stroke-linejoin="round" stroke-linecap="round"/>
<text x="208" y="192">circle</text>
<rect class="border" x="400.5" y="0.5" width="199" height="199"/>
<path d="M570.0,30.0 L570.0,170.0 L430.0,170.0 L430.0,30.0 Z" stroke="#e8e8ea" stroke-width="2" fill="none" stroke-linejoin="round" stroke-linecap="round"/>
<text x="408" y="192">square</text>
<rect class="border" x="600.5" y="0.5" width="199" height="199"/>
<path d="M630.0,30.0 L770.0,30.0 L770.0,170.0 L630.0,170.0 Z" stroke="#e8e8ea" stroke-width="2" fill="none" stroke-linejoin="round" stroke-linecap="round"/>
<text x="608" y="192">rectangle</text>
<rect class="border" x="800.5" y="0.5" width="199" height="199"/>
<path d="M900.0,30.0 L970.0,100.0 L900.0,170.0 L830.0,100.0 Z" stroke="#e8e8ea" stroke-width="2" fill="none" stroke-linejoin="round" stroke-linecap="round"/>
<text x="808" y="192">rhombus (monk)</text>
<rect class="border" x="0.5" y="200.5" width="199" height="199"/>
<path d="M100.0,230.0 L170.0,300.0 L100.0,370.0 L30.0,300.0 Z" stroke="#e8e8ea" stroke-width="2" fill="none" stroke-linejoin="round" stroke-linecap="round"/>
<text x="8" y="392">diamond (charger)</text>
<rect class="border" x="200.5" y="200.5" width="199" height="199"/>
<path d="M258.0,230.0 L342.0,230.0 L370.0,370.0 L230.0,370.0 Z" stroke="#e8e8ea" stroke-width="2" fill="none" stroke-linejoin="round" stroke-linecap="round"/>
<text x="208" y="392">trapezoid (net)</text>
<rect class="border" x="400.5" y="200.5" width="199" height="199"/>
<path d="M500.0,233.4 L570.0,284.3 L543.3,366.6 L456.7,366.6 L430.0,284.3 Z" stroke="#e8e8ea" stroke-width="2" fill="none" stroke-linejoin="round" stroke-linecap="round"/>
<text x="408" y="392">pentagon</text>
<rect class="border" x="600.5" y="200.5" width="199" height="199"/>
<path d="M700.0,230.0 L760.6,265.0 L760.6,335.0 L700.0,370.0 L639.4,335.0 L639.4,265.0 Z" stroke="#e8e8ea" stroke-width="2" fill="none" stroke-linejoin="round" stroke-linecap="round"/>
<text x="608" y="392">hexagon</text>
<rect class="border" x="800.5" y="200.5" width="199" height="199"/>
<path d="M900.0,231.8 L956.1,258.8 L970.0,319.5 L931.2,368.2 L868.8,368.2 L830.0,319.5 L843.9,258.8 Z" stroke="#e8e8ea" stroke-width="2" fill="none" stroke-linejoin="round" stroke-linecap="round"/>
<text x="808" y="392">heptagon</text>
<rect class="border" x="0.5" y="400.5" width="199" height="199"/>
<path d="M100.0,430.0 L149.5,450.5 L170.0,500.0 L149.5,549.5 L100.0,570.0 L50.5,549.5 L30.0,500.0 L50.5,450.5 Z" stroke="#e8e8ea" stroke-width="2" fill="none" stroke-linejoin="round" stroke-linecap="round"/>
<text x="8" y="592">octagon</text>
<rect class="border" x="200.5" y="400.5" width="199" height="199"/>
<path d="M300.0,431.1 L345.7,447.7 L370.0,489.8 L361.6,537.7 L324.3,568.9 L275.7,568.9 L238.4,537.7 L230.0,489.8 L254.3,447.7 Z" stroke="#e8e8ea" stroke-width="2" fill="none" stroke-linejoin="round" stroke-linecap="round"/>
<text x="208" y="592">nonagon</text>
<rect class="border" x="400.5" y="400.5" width="199" height="199"/>
<path d="M500.0,430.0 L541.1,443.4 L566.6,478.4 L566.6,521.6 L541.1,556.6 L500.0,570.0 L458.9,556.6 L433.4,521.6 L433.4,478.4 L458.9,443.4 Z" stroke="#e8e8ea" stroke-width="2" fill="none" stroke-linejoin="round" stroke-linecap="round"/>
<text x="408" y="592">decagon</text>
<rect class="border" x="600.5" y="400.5" width="199" height="199"/>
<path d="M676.7,430.0 L723.3,430.0 L723.3,476.7 L770.0,476.7 L770.0,523.3 L723.3,523.3 L723.3,570.0 L676.7,570.0 L676.7,523.3 L630.0,523.3 L630.0,476.7 L676.7,476.7 Z" stroke="#e8a13a" stroke-width="2" fill="none" stroke-linejoin="round" stroke-linecap="round"/>
<text x="608" y="592">plusSign (heal)</text>
<rect class="border" x="800.5" y="400.5" width="199" height="199"/>
<path d="M900.0,430.0 L970.0,486.0 L925.2,486.0 L925.2,570.0 L874.8,570.0 L874.8,486.0 L830.0,486.0 Z" stroke="#e8a13a" stroke-width="2" fill="none" stroke-linejoin="round" stroke-linecap="round"/>
<text x="808" y="592">arrow (spear)</text>
<rect class="border" x="0.5" y="600.5" width="199" height="199"/>
<path d="M100.0,770.0 L170.0,714.0 L125.2,714.0 L125.2,630.0 L74.8,630.0 L74.8,714.0 L30.0,714.0 Z" stroke="#e8a13a" stroke-width="2" fill="none" stroke-linejoin="round" stroke-linecap="round"/>
<text x="8" y="792">arrowDown (debuff)</text>
<rect class="border" x="200.5" y="600.5" width="199" height="199"/>
<path d="M328.0,630.0 L272.0,693.0 L328.0,707.0 L272.0,770.0" stroke="#e8a13a" stroke-width="2" fill="none" stroke-linejoin="round" stroke-linecap="round"/>
<text x="208" y="792">bolt (scout)</text>
<rect class="border" x="400.5" y="600.5" width="199" height="199"/>
<path d="M500.0,630.0 L500.0,630.0 L500.1,630.1 L500.2,630.3 L500.3,630.6 L500.5,630.9 L500.7,631.2 L501.0,631.7 L501.3,632.2 L501.7,632.8 L502.0,633.4 L502.4,634.1 L502.9,634.9 L503.4,635.8 L503.9,636.7 L504.5,637.6 L505.0,638.7 L505.6,639.7 L506.3,640.9 L506.9,642.1 L507.6,643.4 L508.3,644.7 L509.1,646.1 L509.8,647.5 L510.6,649.0 L511.4,650.5 L512.2,652.1 L513.0,653.7 L513.8,655.4 L514.6,657.1 L515.4,658.9 L516.3,660.7 L517.1,662.5 L517.9,664.4 L518.7,666.3 L519.6,668.2 L520.4,670.2 L521.2,672.2 L521.9,674.2 L522.7,676.3 L523.5,678.4 L524.2,680.5 L524.9,682.6 L525.6,684.7 L526.3,686.9 L526.9,689.0 L527.6,691.2 L528.1,693.4 L528.7,695.6 L529.2,697.8 L529.7,700.0 L530.1,702.2 L530.6,704.4 L530.9,706.6 L531.3,708.8 L531.5,711.0 L531.8,713.1 L532.0,715.3 L532.1,717.4 L532.3,719.5 L532.3,721.6 L532.3,723.7 L532.3,725.8 L532.2,727.8 L532.1,729.8 L531.9,731.8 L531.7,733.7 L531.4,735.6 L531.1,737.5 L530.7,739.3 L530.3,741.1 L529.8,742.9 L529.3,744.6 L528.7,746.3 L528.1,747.9 L527.4,749.5 L526.7,751.0 L526.0,752.5 L525.2,753.9 L524.4,755.3 L523.5,756.6 L522.6,757.9 L521.6,759.1 L520.6,760.3 L519.6,761.3 L518.5,762.4 L517.5,763.3 L516.3,764.2 L515.2,765.1 L514.0,765.9 L512.8,766.6 L511.6,767.2 L510.4,767.8 L509.1,768.3 L507.8,768.8 L506.5,769.1 L505.3,769.4 L503.9,769.7 L502.6,769.9 L501.3,770.0 L500.0,770.0 L498.7,770.0 L497.4,769.9 L496.1,769.7 L494.7,769.4 L493.5,769.1 L492.2,768.8 L490.9,768.3 L489.6,767.8 L488.4,767.2 L487.2,766.6 L486.0,765.9 L484.8,765.1 L483.7,764.2 L482.5,763.3 L481.5,762.4 L480.4,761.3 L479.4,760.3 L478.4,759.1 L477.4,757.9 L476.5,756.6 L475.6,755.3 L474.8,753.9 L474.0,752.5 L473.3,751.0 L472.6,749.5 L471.9,747.9 L471.3,746.3 L470.7,744.6 L470.2,742.9 L469.7,741.1 L469.3,739.3 L468.9,737.5 L468.6,735.6 L468.3,733.7 L468.1,731.8 L467.9,729.8 L467.8,727.8 L467.7,725.8 L467.7,723.7 L467.7,721.6 L467.7,719.5 L467.9,717.4 L468.0,715.3 L468.2,713.1 L468.5,711.0 L468.7,708.8 L469.1,706.6 L469.4,704.4 L469.9,702.2 L470.3,700.0 L470.8,697.8 L471.3,695.6 L471.9,693.4 L472.4,691.2 L473.1,689.0 L473.7,686.9 L474.4,684.7 L475.1,682.6 L475.8,680.5 L476.5,678.4 L477.3,676.3 L478.1,674.2 L478.8,672.2 L479.6,670.2 L480.4,668.2 L481.3,666.3 L482.1,664.4 L482.9,662.5 L483.7,660.7 L484.6,658.9 L485.4,657.1 L486.2,655.4 L487.0,653.7 L487.8,652.1 L488.6,650.5 L489.4,649.0 L490.2,647.5 L490.9,646.1 L491.7,644.7 L492.4,643.4 L493.1,642.1 L493.7,640.9 L494.4,639.7 L495.0,638.7 L495.5,637.6 L496.1,636.7 L496.6,635.8 L497.1,634.9 L497.6,634.1 L498.0,633.4 L498.3,632.8 L498.7,632.2 L499.0,631.7 L499.3,631.2 L499.5,630.9 L499.7,630.6 L499.8,630.3 L499.9,630.1 L500.0,630.0 L500.0,630.0 Z" stroke="#e8a13a" stroke-width="2" fill="none" stroke-linejoin="round" stroke-linecap="round"/>
<text x="408" y="792">tear (alchemist)</text>
<rect class="border" x="600.5" y="600.5" width="199" height="199"/>
<path d="M651.5,638.3 L651.6,637.8 L651.9,637.3 L652.3,636.8 L653.0,636.2 L653.9,635.7 L654.9,635.3 L656.1,634.8 L657.5,634.3 L659.0,633.9 L660.8,633.4 L662.6,633.0 L664.6,632.6 L666.8,632.3 L669.1,631.9 L671.5,631.6 L674.0,631.3 L676.6,631.0 L679.3,630.8 L682.1,630.6 L685.0,630.4 L687.9,630.3 L690.9,630.1 L693.9,630.1 L697.0,630.0 L700.0,630.0 L703.0,630.0 L706.1,630.1 L709.1,630.1 L712.1,630.3 L715.0,630.4 L717.9,630.6 L720.7,630.8 L723.4,631.0 L726.0,631.3 L728.5,631.6 L730.9,631.9 L733.2,632.3 L735.4,632.6 L737.4,633.0 L739.2,633.4 L741.0,633.9 L742.5,634.3 L743.9,634.8 L745.1,635.3 L746.1,635.7 L747.0,636.2 L747.7,636.8 L748.1,637.3 L748.4,637.8 L748.5,638.3 L748.5,638.3 L748.5,642.2 L748.4,646.2 L748.3,650.1 L748.1,654.0 L747.9,657.8 L747.7,661.7 L747.3,665.5 L747.0,669.3 L746.6,673.1 L746.1,676.9 L745.6,680.6 L745.1,684.2 L744.5,687.9 L743.9,691.4 L743.2,695.0 L742.5,698.4 L741.8,701.8 L741.0,705.2 L740.1,708.4 L739.2,711.6 L738.3,714.8 L737.4,717.8 L736.4,720.8 L735.4,723.7 L734.3,726.5 L733.2,729.3 L732.1,731.9 L730.9,734.4 L729.7,736.9 L728.5,739.2 L727.3,741.5 L726.0,743.6 L724.7,745.7 L723.4,747.6 L722.0,749.5 L720.7,751.2 L719.3,752.8 L717.9,754.3 L716.4,755.7 L715.0,757.0 L713.5,758.1 L712.1,759.1 L710.6,760.1 L709.1,760.9 L707.6,761.5 L706.1,762.1 L704.6,762.5 L703.0,762.8 L701.5,763.0 L700.0,763.1 L700.0,770.0 L700.0,763.1 L698.5,763.0 L697.0,762.8 L695.4,762.5 L693.9,762.1 L692.4,761.5 L690.9,760.9 L689.4,760.1 L687.9,759.1 L686.5,758.1 L685.0,757.0 L683.6,755.7 L682.1,754.3 L680.7,752.8 L679.3,751.2 L678.0,749.5 L676.6,747.6 L675.3,745.7 L674.0,743.6 L672.7,741.5 L671.5,739.2 L670.3,736.9 L669.1,734.4 L667.9,731.9 L666.8,729.3 L665.7,726.5 L664.6,723.7 L663.6,720.8 L662.6,717.8 L661.7,714.8 L660.8,711.6 L659.9,708.4 L659.0,705.2 L658.2,701.8 L657.5,698.4 L656.8,695.0 L656.1,691.4 L655.5,687.9 L654.9,684.2 L654.4,680.6 L653.9,676.9 L653.4,673.1 L653.0,669.3 L652.7,665.5 L652.3,661.7 L652.1,657.8 L651.9,654.0 L651.7,650.1 L651.6,646.2 L651.5,642.2 L651.5,638.3 Z" stroke="#e8a13a" stroke-width="2" fill="none" stroke-linejoin="round" stroke-linecap="round"/>
<text x="608" y="792">shield (paladin)</text>
<rect class="border" x="800.5" y="600.5" width="199" height="199"/>
<path d="M900.0,630.0 L913.1,677.3 L960.6,665.0 L926.3,700.0 L960.6,735.0 L913.1,722.7 L900.0,770.0 L886.9,722.7 L839.4,735.0 L873.8,700.0 L839.4,665.0 L886.9,677.3 L900.0,630.0 Z" stroke="#e8a13a" stroke-width="2" fill="none" stroke-linejoin="round" stroke-linecap="round"/>
<text x="808" y="792">star (mage, 6-pt)</text>
<rect class="border" x="0.5" y="800.5" width="199" height="199"/>
<path d="M30.0,917.5 L30.0,916.4 L30.1,915.3 L30.3,914.2 L30.6,913.1 L30.9,912.0 L31.2,910.9 L31.7,909.9 L32.2,908.8 L32.8,907.7 L33.4,906.7 L34.1,905.6 L34.9,904.6 L35.8,903.6 L36.7,902.6 L37.6,901.6 L38.7,900.6 L39.7,899.7 L40.9,898.7 L42.1,897.8 L43.4,896.9 L44.7,896.0 L46.1,895.2 L47.5,894.4 L49.0,893.5 L50.5,892.8 L52.1,892.0 L53.7,891.2 L55.4,890.5 L57.1,889.8 L58.9,889.2 L60.7,888.6 L62.5,887.9 L64.4,887.4 L66.3,886.8 L68.2,886.3 L70.2,885.8 L72.2,885.4 L74.2,885.0 L76.3,884.6 L78.4,884.2 L80.5,883.9 L82.6,883.6 L84.7,883.3 L86.9,883.1 L89.0,882.9 L91.2,882.8 L93.4,882.7 L95.6,882.6 L97.8,882.5 L100.0,882.5 L102.2,882.5 L104.4,882.6 L106.6,882.7 L108.8,882.8 L111.0,882.9 L113.1,883.1 L115.3,883.3 L117.4,883.6 L119.5,883.9 L121.6,884.2 L123.7,884.6 L125.8,885.0 L127.8,885.4 L129.8,885.8 L131.8,886.3 L133.7,886.8 L135.6,887.4 L137.5,887.9 L139.3,888.6 L141.1,889.2 L142.9,889.8 L144.6,890.5 L146.3,891.2 L147.9,892.0 L149.5,892.8 L151.0,893.5 L152.5,894.4 L153.9,895.2 L155.3,896.0 L156.6,896.9 L157.9,897.8 L159.1,898.7 L160.3,899.7 L161.3,900.6 L162.4,901.6 L163.3,902.6 L164.2,903.6 L165.1,904.6 L165.9,905.6 L166.6,906.7 L167.2,907.7 L167.8,908.8 L168.3,909.9 L168.8,910.9 L169.1,912.0 L169.4,913.1 L169.7,914.2 L169.9,915.3 L170.0,916.4 L170.0,917.5" stroke="#e8a13a" stroke-width="2" fill="none" stroke-linejoin="round" stroke-linecap="round"/>
<text x="8" y="992">boomerang</text>
<rect class="border" x="200.5" y="800.5" width="199" height="199"/>
<path d="M300.0,830.0 L318.6,881.4 L370.0,900.0 L318.6,918.6 L300.0,970.0 L281.4,918.6 L230.0,900.0 L281.4,881.4 L300.0,830.0 Z" stroke="#e8a13a" stroke-width="2" fill="none" stroke-linejoin="round" stroke-linecap="round"/>
<text x="208" y="992">shuriken (ninja)</text>
<rect class="border" x="400.5" y="800.5" width="199" height="199"/>
<path d="M488.8,830.0 L511.2,830.0 L511.2,874.8 L500.0,891.6 L503.5,891.7 L507.0,892.1 L510.5,892.7 L513.8,893.5 L517.1,894.6 L520.3,895.9 L523.4,897.4 L526.3,899.1 L529.1,901.0 L531.7,903.1 L534.1,905.3 L536.2,907.8 L538.2,910.3 L539.9,913.0 L541.4,915.8 L542.6,918.7 L543.6,921.6 L544.2,924.7 L544.7,927.7 L544.8,930.8 L544.7,933.9 L544.2,936.9 L543.6,940.0 L542.6,942.9 L541.4,945.8 L539.9,948.6 L538.2,951.3 L536.2,953.8 L534.1,956.3 L531.7,958.5 L529.1,960.6 L526.3,962.5 L523.4,964.2 L520.3,965.7 L517.1,967.0 L513.8,968.1 L510.5,968.9 L507.0,969.5 L503.5,969.9 L500.0,970.0 L500.0,970.0 L496.5,969.9 L493.0,969.5 L489.5,968.9 L486.2,968.1 L482.9,967.0 L479.7,965.7 L476.6,964.2 L473.7,962.5 L470.9,960.6 L468.3,958.5 L465.9,956.3 L463.8,953.8 L461.8,951.3 L460.1,948.6 L458.6,945.8 L457.4,942.9 L456.4,940.0 L455.8,936.9 L455.3,933.9 L455.2,930.8 L455.3,927.7 L455.8,924.7 L456.4,921.6 L457.4,918.7 L458.6,915.8 L460.1,913.0 L461.8,910.3 L463.8,907.8 L465.9,905.3 L468.3,903.1 L470.9,901.0 L473.7,899.1 L476.6,897.4 L479.7,895.9 L482.9,894.6 L486.2,893.5 L489.5,892.7 L493.0,892.1 L496.5,891.7 L500.0,891.6 L488.8,874.8 Z" stroke="#e8a13a" stroke-width="2" fill="none" stroke-linejoin="round" stroke-linecap="round"/>
<text x="408" y="992">flask (alchemist)</text>
<rect class="border" x="600.5" y="800.5" width="199" height="199"/>
<path d="M630.0,900.0 L632.8,898.1 L635.6,896.1 L638.4,894.2 L641.2,892.3 L644.0,890.5 L646.8,888.7 L649.6,886.9 L652.4,885.2 L655.2,883.5 L658.0,881.9 L660.8,880.4 L663.6,878.9 L666.4,877.5 L669.2,876.3 L672.0,875.1 L674.8,874.0 L677.6,873.0 L680.4,872.1 L683.2,871.4 L686.0,870.7 L688.8,870.2 L691.6,869.7 L694.4,869.4 L697.2,869.3 L700.0,869.2 L702.8,869.3 L705.6,869.4 L708.4,869.7 L711.2,870.2 L714.0,870.7 L716.8,871.4 L719.6,872.1 L722.4,873.0 L725.2,874.0 L728.0,875.1 L730.8,876.3 L733.6,877.5 L736.4,878.9 L739.2,880.4 L742.0,881.9 L744.8,883.5 L747.6,885.2 L750.4,886.9 L753.2,888.7 L756.0,890.5 L758.8,892.3 L761.6,894.2 L764.4,896.1 L767.2,898.1 L770.0,900.0 L770.0,900.0 L767.2,901.9 L764.4,903.9 L761.6,905.8 L758.8,907.7 L756.0,909.5 L753.2,911.3 L750.4,913.1 L747.6,914.8 L744.8,916.5 L742.0,918.1 L739.2,919.6 L736.4,921.1 L733.6,922.5 L730.8,923.7 L728.0,924.9 L725.2,926.0 L722.4,927.0 L719.6,927.9 L716.8,928.6 L714.0,929.3 L711.2,929.8 L708.4,930.3 L705.6,930.6 L702.8,930.7 L700.0,930.8 L697.2,930.7 L694.4,930.6 L691.6,930.3 L688.8,929.8 L686.0,929.3 L683.2,928.6 L680.4,927.9 L677.6,927.0 L674.8,926.0 L672.0,924.9 L669.2,923.7 L666.4,922.5 L663.6,921.1 L660.8,919.6 L658.0,918.1 L655.2,916.5 L652.4,914.8 L649.6,913.1 L646.8,911.3 L644.0,909.5 L641.2,907.7 L638.4,905.8 L635.6,903.9 L632.8,901.9 L630.0,900.0 Z" stroke="#e8a13a" stroke-width="2" fill="none" stroke-linejoin="round" stroke-linecap="round"/>
<text x="608" y="992">eye (seer)</text>
<rect class="border" x="800.5" y="800.5" width="199" height="199"/>
<path d="M851.0,830.0 L949.0,830.0 L949.0,872.0 L911.2,872.0 L911.2,970.0 L888.8,970.0 L888.8,872.0 L851.0,872.0 Z" stroke="#e8a13a" stroke-width="2" fill="none" stroke-linejoin="round" stroke-linecap="round"/>
<text x="808" y="992">hammer (siege)</text>
<rect class="border" x="0.5" y="1000.5" width="199" height="199"/>
<path d="M30.0,1154.4 L170.0,1154.4 L170.0,1107.8 L146.7,1131.1 L134.2,1053.3 L118.7,1123.3 L100.0,1045.6 L81.3,1123.3 L65.8,1053.3 L53.3,1131.1 L30.0,1107.8 Z" stroke="#e8a13a" stroke-width="2" fill="none" stroke-linejoin="round" stroke-linecap="round"/>
<text x="8" y="1192">crown (commander)</text>
<rect class="border" x="200.5" y="1000.5" width="199" height="199"/>
<path d="M300.0,1030.0 L302.3,1030.3 L304.5,1031.2 L306.4,1032.6 L307.8,1034.5 L308.7,1036.7 L309.0,1039.0 L308.7,1041.4 L307.8,1043.5 L306.4,1045.4 L304.5,1046.9 L302.3,1047.8 L300.0,1048.1 L297.7,1047.8 L295.5,1046.9 L293.6,1045.4 L292.2,1043.5 L291.3,1041.4 L291.0,1039.0 L291.3,1036.7 L292.2,1034.5 L293.6,1032.6 L295.5,1031.2 L297.7,1030.3 L300.0,1030.0 L312.0,1049.6 L312.9,1052.6 L313.8,1055.6 L314.8,1058.6 L315.7,1061.6 L316.6,1064.6 L317.4,1067.6 L318.3,1070.6 L319.2,1073.7 L320.1,1076.7 L321.0,1079.7 L321.9,1082.7 L322.8,1085.7 L323.7,1088.7 L324.5,1091.7 L325.4,1094.7 L326.2,1097.7 L327.1,1100.8 L328.0,1103.8 L328.8,1106.8 L329.6,1109.8 L330.5,1112.8 L331.3,1115.8 L332.1,1118.8 L332.9,1121.8 L333.7,1124.8 L334.5,1127.8 L335.3,1130.9 L336.0,1133.9 L336.8,1136.9 L337.5,1139.9 L338.3,1142.9 L339.0,1145.9 L339.7,1148.9 L340.4,1151.9 L341.1,1154.9 L341.8,1158.0 L342.5,1161.0 L343.2,1164.0 L343.8,1167.0 L344.4,1170.0 L357.2,1170.0 L242.8,1170.0 L255.6,1170.0 L256.2,1167.0 L256.8,1164.0 L257.5,1161.0 L258.2,1158.0 L258.9,1154.9 L259.6,1151.9 L260.3,1148.9 L261.0,1145.9 L261.7,1142.9 L262.5,1139.9 L263.2,1136.9 L264.0,1133.9 L264.7,1130.9 L265.5,1127.8 L266.3,1124.8 L267.1,1121.8 L267.9,1118.8 L268.7,1115.8 L269.5,1112.8 L270.4,1109.8 L271.2,1106.8 L272.0,1103.8 L272.9,1100.8 L273.8,1097.7 L274.6,1094.7 L275.5,1091.7 L276.3,1088.7 L277.2,1085.7 L278.1,1082.7 L279.0,1079.7 L279.9,1076.7 L280.8,1073.7 L281.7,1070.6 L282.6,1067.6 L283.4,1064.6 L284.3,1061.6 L285.2,1058.6 L286.2,1055.6 L287.1,1052.6 L288.0,1049.6 Z" stroke="#e8a13a" stroke-width="2" fill="none" stroke-linejoin="round" stroke-linecap="round"/>
<text x="208" y="1192">bell (bard)</text>
<rect class="border" x="400.5" y="1000.5" width="199" height="199"/>
<path d="M500.0,1030.0 L504.9,1038.5 L504.9,1054.3 L521.9,1054.3 L521.9,1062.9 L506.1,1062.9 L506.1,1157.8 L500.0,1170.0 L493.9,1157.8 L493.9,1062.9 L478.1,1062.9 L478.1,1054.3 L495.1,1054.3 L495.1,1038.5 Z" stroke="#e8a13a" stroke-width="2" fill="none" stroke-linejoin="round" stroke-linecap="round"/>
<text x="408" y="1192">sword (duelist)</text>
<rect class="border" x="600.5" y="1000.5" width="199" height="199"/>
<path d="M680.4,1030.0 L683.5,1030.2 L686.5,1030.9 L689.6,1031.9 L692.5,1033.4 L695.4,1035.3 L698.2,1037.6 L700.9,1040.3 L703.4,1043.4 L705.9,1046.8 L708.1,1050.5 L710.2,1054.5 L712.1,1058.9 L713.8,1063.4 L715.3,1068.2 L716.6,1073.2 L717.7,1078.4 L718.5,1083.7 L719.1,1089.0 L719.5,1094.5 L719.6,1100.0 L719.5,1105.5 L719.1,1111.0 L718.5,1116.3 L717.7,1121.6 L716.6,1126.8 L715.3,1131.8 L713.8,1136.6 L712.1,1141.1 L710.2,1145.5 L708.1,1149.5 L705.9,1153.2 L703.4,1156.6 L700.9,1159.7 L698.2,1162.4 L695.4,1164.7 L692.5,1166.6 L689.6,1168.1 L686.5,1169.1 L683.5,1169.8 L680.4,1170.0 L680.4,1170.0 L680.4,1030.0" stroke="#e8a13a" stroke-width="2" fill="none" stroke-linejoin="round" stroke-linecap="round"/>
<text x="608" y="1192">bow (archer)</text>
<rect class="border" x="800.5" y="1000.5" width="199" height="199"/>
<path d="M896.2,1170.0 L901.3,1170.0 L901.3,1068.2 L930.5,1068.2 L936.9,1042.7 L905.1,1030.0 L892.4,1030.0 L866.9,1036.4 L863.1,1064.4 L896.2,1068.2 Z" stroke="#e8a13a" stroke-width="2" fill="none" stroke-linejoin="round" stroke-linecap="round"/>
<text x="808" y="1192">axe (executioner)</text>
<rect class="border" x="0.5" y="1200.5" width="199" height="199"/>
<path d="M100.0,1230.0 L104.4,1240.3 L104.4,1255.1 L117.7,1255.1 L117.7,1263.9 L105.9,1263.9 L100.0,1370.0 L94.1,1263.9 L82.3,1263.9 L82.3,1255.1 L95.6,1255.1 L95.6,1240.3 Z" stroke="#e8a13a" stroke-width="2" fill="none" stroke-linejoin="round" stroke-linecap="round"/>
<text x="8" y="1392">dagger (assassin)</text>
<rect class="border" x="200.5" y="1200.5" width="199" height="199"/>
<path d="M325.2,1230.0 L325.2,1234.7 L325.1,1239.3 L324.9,1244.0 L324.8,1248.7 L324.5,1253.3 L324.2,1258.0 L323.8,1262.7 L323.4,1267.3 L322.9,1272.0 L322.4,1276.7 L321.8,1281.3 L321.2,1286.0 L320.5,1290.7 L319.7,1295.3 L318.9,1300.0 L318.0,1304.7 L317.1,1309.3 L316.1,1314.0 L315.1,1318.7 L314.0,1323.3 L312.9,1328.0 L311.6,1332.7 L310.4,1337.3 L309.1,1342.0 L307.7,1346.7 L306.3,1351.3 L304.8,1356.0 L303.2,1360.7 L301.7,1365.3 L300.0,1370.0 L305.6,1370.0 L303.6,1365.3 L301.6,1360.7 L299.7,1356.0 L297.9,1351.3 L296.2,1346.7 L294.5,1342.0 L292.9,1337.3 L291.4,1332.7 L289.9,1328.0 L288.5,1323.3 L287.2,1318.7 L285.9,1314.0 L284.7,1309.3 L283.6,1304.7 L282.5,1300.0 L281.5,1295.3 L280.6,1290.7 L279.7,1286.0 L278.9,1281.3 L278.2,1276.7 L277.6,1272.0 L277.0,1267.3 L276.5,1262.7 L276.0,1258.0 L275.7,1253.3 L275.3,1248.7 L275.1,1244.0 L274.9,1239.3 L274.8,1234.7 L274.8,1230.0 Z" stroke="#e8a13a" stroke-width="2" fill="none" stroke-linejoin="round" stroke-linecap="round"/>
<text x="208" y="1392">fang (venom-bite)</text>
<rect class="border" x="400.5" y="1200.5" width="199" height="199"/>
<path d="M465.0,1230.0 L535.0,1230.0 L442.2,1332.8 L439.4,1328.0 L436.6,1323.2 L505.6,1370.0 L500.0,1370.0 L494.4,1370.0 L563.4,1323.2 L560.6,1328.0 L557.8,1332.8" stroke="#e8a13a" stroke-width="2" fill="none" stroke-linejoin="round" stroke-linecap="round"/>
<text x="408" y="1392">claw (multi-strike)</text>
<rect class="border" x="600.5" y="1200.5" width="199" height="199"/>
<path d="M630.0,1285.3 L770.0,1263.2 L770.0,1285.3 L767.2,1288.3 L764.4,1291.3 L761.6,1294.0 L758.8,1296.5 L756.0,1298.8 L753.2,1300.8 L750.4,1302.5 L747.6,1303.9 L744.8,1305.2 L742.0,1306.2 L739.2,1307.1 L736.4,1307.9 L733.6,1308.7 L730.8,1309.4 L728.0,1310.2 L725.2,1311.1 L722.4,1312.0 L719.6,1313.1 L716.8,1314.3 L714.0,1315.6 L711.2,1317.1 L708.4,1318.6 L705.6,1320.2 L702.8,1321.7 L700.0,1323.3 L697.2,1324.9 L694.4,1326.3 L691.6,1327.7 L688.8,1328.9 L686.0,1330.0 L683.2,1330.9 L680.4,1331.7 L677.6,1332.4 L674.8,1332.9 L672.0,1333.3 L669.2,1333.7 L666.4,1334.0 L663.6,1334.2 L660.8,1334.4 L658.0,1334.6 L655.2,1334.8 L652.4,1335.1 L649.6,1335.3 L646.8,1335.6 L644.0,1335.9 L641.2,1336.2 L638.4,1336.4 L635.6,1336.6 L632.8,1336.8 L630.0,1336.8 Z" stroke="#e8a13a" stroke-width="2" fill="none" stroke-linejoin="round" stroke-linecap="round"/>
<text x="608" y="1392">wing (flying)</text>
<rect class="border" x="800.5" y="1200.5" width="199" height="199"/>
<path d="M844.0,1286.0 L847.6,1286.5 L851.0,1287.9 L853.9,1290.1 L856.1,1293.0 L857.5,1296.4 L858.0,1300.0 L857.5,1303.6 L856.1,1307.0 L853.9,1309.9 L851.0,1312.1 L847.6,1313.5 L844.0,1314.0 L840.4,1313.5 L837.0,1312.1 L834.1,1309.9 L831.9,1307.0 L830.5,1303.6 L830.0,1300.0 L830.5,1296.4 L831.9,1293.0 L834.1,1290.1 L837.0,1287.9 L840.4,1286.5 L844.0,1286.0 L844.0,1286.0 L956.0,1286.0 L956.0,1314.0 L952.4,1313.5 L949.0,1312.1 L946.1,1309.9 L943.9,1307.0 L942.5,1303.6 L942.0,1300.0 L942.5,1296.4 L943.9,1293.0 L946.1,1290.1 L949.0,1287.9 L952.4,1286.5 L956.0,1286.0 L959.6,1286.5 L963.0,1287.9 L965.9,1290.1 L968.1,1293.0 L969.5,1296.4 L970.0,1300.0 L969.5,1303.6 L968.1,1307.0 L965.9,1309.9 L963.0,1312.1 L959.6,1313.5 L956.0,1314.0 L956.0,1314.0 L844.0,1314.0 Z" stroke="#e8a13a" stroke-width="2" fill="none" stroke-linejoin="round" stroke-linecap="round"/>
<text x="808" y="1392">scroll (caster)</text>
<rect class="border" x="0.5" y="1400.5" width="199" height="199"/>
<path d="M170.0,1500.0 L169.6,1507.3 L168.5,1514.6 L166.6,1521.6 L163.9,1528.5 L160.6,1535.0 L156.6,1541.1 L152.0,1546.8 L146.8,1552.0 L141.1,1556.6 L135.0,1560.6 L128.5,1563.9 L121.6,1566.6 L114.6,1568.5 L107.3,1569.6 L100.0,1570.0 L92.7,1569.6 L85.4,1568.5 L78.4,1566.6 L71.5,1563.9 L65.0,1560.6 L58.9,1556.6 L53.2,1552.0 L48.0,1546.8 L43.4,1541.1 L39.4,1535.0 L36.1,1528.5 L33.4,1521.6 L31.5,1514.6 L30.4,1507.3 L30.0,1500.0 L30.4,1492.7 L31.5,1485.4 L33.4,1478.4 L36.1,1471.5 L39.4,1465.0 L43.4,1458.9 L48.0,1453.2 L53.2,1448.0 L58.9,1443.4 L65.0,1439.4 L71.5,1436.1 L78.4,1433.4 L85.4,1431.5 L92.7,1430.4 L100.0,1430.0 L107.3,1430.4 L114.6,1431.5 L121.6,1433.4 L128.5,1436.1 L135.0,1439.4 L141.1,1443.4 L146.8,1448.0 L152.0,1453.2 L156.6,1458.9 L160.6,1465.0 L163.9,1471.5 L166.6,1478.4 L168.5,1485.4 L169.6,1492.7 L170.0,1500.0 Z" stroke="#e8a13a" stroke-width="2" fill="none" stroke-linejoin="round" stroke-linecap="round"/>
<text x="8" y="1592">orb (mana battery)</text>
<rect class="border" x="200.5" y="1400.5" width="199" height="199"/>
<path d="M290.1,1439.9 L290.2,1438.4 L290.6,1436.8 L291.2,1435.4 L292.0,1434.1 L293.0,1432.9 L294.2,1431.9 L295.5,1431.1 L296.9,1430.5 L298.4,1430.1 L300.0,1430.0 L301.6,1430.1 L303.1,1430.5 L304.5,1431.1 L305.8,1431.9 L307.0,1432.9 L308.0,1434.1 L308.8,1435.4 L309.4,1436.8 L309.8,1438.4 L309.9,1439.9 L300.0,1449.8 L327.3,1452.3 L334.7,1461.0 L334.7,1551.4 L327.3,1570.0 L272.7,1570.0 L265.3,1551.4 L265.3,1461.0 L272.7,1452.3 Z" stroke="#e8a13a" stroke-width="2" fill="none" stroke-linejoin="round" stroke-linecap="round"/>
<text x="208" y="1592">lantern (reveal)</text>
<rect class="border" x="400.5" y="1400.5" width="199" height="199"/>
<path d="M461.5,1430.0 L538.5,1430.0 L561.3,1465.0 L538.5,1543.8 L500.0,1570.0 L461.5,1543.8 L438.8,1465.0 Z" stroke="#e8a13a" stroke-width="2" fill="none" stroke-linejoin="round" stroke-linecap="round"/>
<text x="408" y="1592">gem (passive aura)</text>
<rect class="border" x="600.5" y="1400.5" width="199" height="199"/>
<path d="M661.5,1430.0 L703.5,1430.0 L703.5,1535.0 L731.5,1535.0 L738.5,1549.0 L738.5,1570.0 L661.5,1570.0 L661.5,1430.0 Z" stroke="#e8a13a" stroke-width="2" fill="none" stroke-linejoin="round" stroke-linecap="round"/>
<text x="608" y="1592">boot (speed)</text>
<rect class="border" x="800.5" y="1400.5" width="199" height="199"/>
<path d="M830.0,1525.0 L830.2,1517.9 L830.9,1510.9 L831.9,1504.0 L833.4,1497.2 L835.3,1490.6 L837.6,1484.1 L840.3,1478.0 L843.4,1472.1 L846.8,1466.5 L850.5,1461.4 L854.5,1456.6 L858.9,1452.2 L863.4,1448.3 L868.2,1444.8 L873.2,1441.9 L878.4,1439.4 L883.7,1437.5 L889.0,1436.1 L894.5,1435.3 L900.0,1435.0 L905.5,1435.3 L911.0,1436.1 L916.3,1437.5 L921.6,1439.4 L926.8,1441.9 L931.8,1444.8 L936.6,1448.3 L941.1,1452.2 L945.5,1456.6 L949.5,1461.4 L953.2,1466.5 L956.6,1472.1 L959.7,1478.0 L962.4,1484.1 L964.7,1490.6 L966.6,1497.2 L968.1,1504.0 L969.1,1510.9 L969.8,1517.9 L970.0,1525.0 L970.0,1525.0 L970.0,1559.0 L950.0,1565.0 L950.0,1539.0 L850.0,1539.0 L850.0,1565.0 L830.0,1559.0 L830.0,1525.0 Z" stroke="#e8a13a" stroke-width="2" fill="none" stroke-linejoin="round" stroke-linecap="round"/>
<text x="808" y="1592">helmet (defensive)</text>
<rect class="border" x="0.5" y="1600.5" width="199" height="199"/>
<path d="M100.0,1630.0 L100.6,1632.3 L101.7,1634.7 L103.0,1637.0 L104.5,1639.3 L106.1,1641.7 L107.8,1644.0 L109.7,1646.3 L111.6,1648.7 L113.5,1651.0 L115.5,1653.3 L117.5,1655.7 L119.5,1658.0 L121.4,1660.3 L123.3,1662.7 L125.2,1665.0 L126.9,1667.3 L128.6,1669.7 L130.2,1672.0 L131.7,1674.3 L133.1,1676.7 L134.3,1679.0 L135.4,1681.3 L136.3,1683.7 L137.1,1686.0 L137.7,1688.3 L138.2,1690.7 L138.5,1693.0 L138.7,1695.3 L138.6,1697.7 L138.5,1700.0 L138.1,1702.3 L137.7,1704.7 L137.0,1707.0 L136.3,1709.3 L135.4,1711.7 L134.3,1714.0 L133.2,1716.3 L132.0,1718.7 L130.7,1721.0 L129.3,1723.3 L127.8,1725.7 L126.2,1728.0 L124.7,1730.3 L123.1,1732.7 L121.4,1735.0 L119.8,1737.3 L118.1,1739.7 L116.5,1742.0 L114.9,1744.3 L113.3,1746.7 L111.8,1749.0 L110.3,1751.3 L108.9,1753.7 L107.6,1756.0 L106.4,1758.3 L105.3,1760.7 L104.4,1763.0 L103.5,1765.3 L103.0,1767.7 L102.8,1770.0 L97.2,1770.0 L97.0,1767.7 L96.5,1765.3 L95.6,1763.0 L94.7,1760.7 L93.6,1758.3 L92.4,1756.0 L91.1,1753.7 L89.7,1751.3 L88.2,1749.0 L86.7,1746.7 L85.1,1744.3 L83.5,1742.0 L81.9,1739.7 L80.2,1737.3 L78.6,1735.0 L76.9,1732.7 L75.3,1730.3 L73.8,1728.0 L72.2,1725.7 L70.7,1723.3 L69.3,1721.0 L68.0,1718.7 L66.8,1716.3 L65.7,1714.0 L64.6,1711.7 L63.7,1709.3 L63.0,1707.0 L62.3,1704.7 L61.9,1702.3 L61.5,1700.0 L61.4,1697.7 L61.3,1695.3 L61.5,1693.0 L61.8,1690.7 L62.3,1688.3 L62.9,1686.0 L63.7,1683.7 L64.6,1681.3 L65.7,1679.0 L66.9,1676.7 L68.3,1674.3 L69.8,1672.0 L71.4,1669.7 L73.1,1667.3 L74.8,1665.0 L76.7,1662.7 L78.6,1660.3 L80.5,1658.0 L82.5,1655.7 L84.5,1653.3 L86.5,1651.0 L88.4,1648.7 L90.3,1646.3 L92.2,1644.0 L93.9,1641.7 L95.5,1639.3 L97.0,1637.0 L98.3,1634.7 L99.4,1632.3 L100.0,1630.0 Z" stroke="#6fb5c9" stroke-width="2" fill="none" stroke-linejoin="round" stroke-linecap="round"/>
<text x="8" y="1792">flame (fire mod)</text>
<rect class="border" x="200.5" y="1600.5" width="199" height="199"/>
<path d="M230.0,1700.0 L231.4,1702.4 L232.8,1704.7 L234.2,1707.0 L235.6,1709.3 L237.0,1711.4 L238.4,1713.5 L239.8,1715.5 L241.2,1717.3 L242.6,1718.9 L244.0,1720.4 L245.4,1721.7 L246.8,1722.8 L248.2,1723.7 L249.6,1724.4 L251.0,1724.9 L252.4,1725.2 L253.8,1725.2 L255.2,1725.0 L256.6,1724.6 L258.0,1724.0 L259.4,1723.1 L260.8,1722.1 L262.2,1720.8 L263.6,1719.4 L265.0,1717.8 L266.4,1716.1 L267.8,1714.2 L269.2,1712.1 L270.6,1710.0 L272.0,1707.8 L273.4,1705.5 L274.8,1703.2 L276.2,1700.8 L277.6,1698.4 L279.0,1696.1 L280.4,1693.7 L281.8,1691.5 L283.2,1689.3 L284.6,1687.2 L286.0,1685.2 L287.4,1683.3 L288.8,1681.6 L290.2,1680.1 L291.6,1678.7 L293.0,1677.6 L294.4,1676.6 L295.8,1675.8 L297.2,1675.3 L298.6,1674.9 L300.0,1674.8 L301.4,1674.9 L302.8,1675.3 L304.2,1675.8 L305.6,1676.6 L307.0,1677.6 L308.4,1678.7 L309.8,1680.1 L311.2,1681.6 L312.6,1683.3 L314.0,1685.2 L315.4,1687.2 L316.8,1689.3 L318.2,1691.5 L319.6,1693.7 L321.0,1696.1 L322.4,1698.4 L323.8,1700.8 L325.2,1703.2 L326.6,1705.5 L328.0,1707.8 L329.4,1710.0 L330.8,1712.1 L332.2,1714.2 L333.6,1716.1 L335.0,1717.8 L336.4,1719.4 L337.8,1720.8 L339.2,1722.1 L340.6,1723.1 L342.0,1724.0 L343.4,1724.6 L344.8,1725.0 L346.2,1725.2 L347.6,1725.2 L349.0,1724.9 L350.4,1724.4 L351.8,1723.7 L353.2,1722.8 L354.6,1721.7 L356.0,1720.4 L357.4,1718.9 L358.8,1717.3 L360.2,1715.5 L361.6,1713.5 L363.0,1711.4 L364.4,1709.3 L365.8,1707.0 L367.2,1704.7 L368.6,1702.4 L370.0,1700.0" stroke="#6fb5c9" stroke-width="2" fill="none" stroke-linejoin="round" stroke-linecap="round"/>
<text x="208" y="1792">wave (water mod)</text>
<rect class="border" x="400.5" y="1600.5" width="199" height="199"/>
<path d="M500.0,1630.0 L506.8,1632.8 L510.6,1635.6 L513.5,1638.4 L516.0,1641.2 L518.1,1644.0 L519.9,1646.8 L521.5,1649.6 L522.9,1652.4 L524.0,1655.2 L525.0,1658.0 L525.8,1660.8 L526.5,1663.6 L527.0,1666.4 L527.5,1669.2 L527.7,1672.0 L527.9,1674.8 L528.0,1677.6 L528.0,1680.4 L527.8,1683.2 L527.6,1686.0 L527.3,1688.8 L527.0,1691.6 L526.5,1694.4 L526.0,1697.2 L525.4,1700.0 L524.8,1702.8 L524.1,1705.6 L523.4,1708.4 L522.6,1711.2 L521.7,1714.0 L520.8,1716.8 L519.9,1719.6 L519.0,1722.4 L518.0,1725.2 L516.9,1728.0 L515.9,1730.8 L514.8,1733.6 L513.7,1736.4 L512.6,1739.2 L511.5,1742.0 L510.4,1744.8 L509.2,1747.6 L508.1,1750.4 L506.9,1753.2 L505.8,1756.0 L504.6,1758.8 L503.5,1761.6 L502.3,1764.4 L501.1,1767.2 L500.0,1770.0 L500.0,1770.0 L498.9,1767.2 L497.7,1764.4 L496.5,1761.6 L495.4,1758.8 L494.2,1756.0 L493.1,1753.2 L491.9,1750.4 L490.8,1747.6 L489.6,1744.8 L488.5,1742.0 L487.4,1739.2 L486.3,1736.4 L485.2,1733.6 L484.1,1730.8 L483.1,1728.0 L482.0,1725.2 L481.0,1722.4 L480.1,1719.6 L479.2,1716.8 L478.3,1714.0 L477.4,1711.2 L476.6,1708.4 L475.9,1705.6 L475.2,1702.8 L474.6,1700.0 L474.0,1697.2 L473.5,1694.4 L473.0,1691.6 L472.7,1688.8 L472.4,1686.0 L472.2,1683.2 L472.0,1680.4 L472.0,1677.6 L472.1,1674.8 L472.3,1672.0 L472.5,1669.2 L473.0,1666.4 L473.5,1663.6 L474.2,1660.8 L475.0,1658.0 L476.0,1655.2 L477.1,1652.4 L478.5,1649.6 L480.1,1646.8 L481.9,1644.0 L484.0,1641.2 L486.5,1638.4 L489.4,1635.6 L493.2,1632.8 L500.0,1630.0 Z" stroke="#6fb5c9" stroke-width="2" fill="none" stroke-linejoin="round" stroke-linecap="round"/>
<text x="408" y="1792">feather (wind mod)</text>
<rect class="border" x="600.5" y="1600.5" width="199" height="199"/>
<path d="M700.0,1630.0 L708.4,1685.5 L760.6,1665.0 L716.8,1700.0 L760.6,1735.0 L708.4,1714.5 L700.0,1770.0 L691.6,1714.5 L639.4,1735.0 L683.2,1700.0 L639.4,1665.0 L691.6,1685.5 L700.0,1630.0 Z" stroke="#6fb5c9" stroke-width="2" fill="none" stroke-linejoin="round" stroke-linecap="round"/>
<text x="608" y="1792">snowflake (ice mod)</text>
<rect class="border" x="800.5" y="1600.5" width="199" height="199"/>
<path d="M950.7,1749.5 L948.3,1751.8 L945.8,1753.9 L943.2,1756.0 L940.6,1757.9 L937.8,1759.7 L934.9,1761.3 L932.0,1762.9 L929.0,1764.3 L925.9,1765.5 L922.8,1766.6 L919.7,1767.5 L916.5,1768.3 L913.2,1769.0 L910.0,1769.5 L906.7,1769.8 L903.4,1770.0 L900.1,1770.0 L896.8,1769.9 L893.5,1769.6 L890.2,1769.1 L887.0,1768.6 L883.8,1767.8 L880.6,1766.9 L877.5,1765.9 L874.4,1764.7 L871.4,1763.3 L868.4,1761.9 L865.6,1760.3 L862.8,1758.5 L860.1,1756.6 L857.4,1754.6 L854.9,1752.5 L852.5,1750.3 L850.2,1747.9 L848.0,1745.5 L845.9,1742.9 L843.9,1740.3 L842.1,1737.5 L840.4,1734.7 L838.8,1731.8 L837.4,1728.8 L836.1,1725.8 L835.0,1722.7 L834.0,1719.5 L833.1,1716.3 L832.4,1713.1 L831.9,1709.9 L831.5,1706.6 L831.3,1703.3 L831.2,1700.0 L831.3,1696.7 L831.5,1693.4 L831.9,1690.1 L832.4,1686.9 L833.1,1683.7 L834.0,1680.5 L835.0,1677.3 L836.1,1674.2 L837.4,1671.2 L838.8,1668.2 L840.4,1665.3 L842.1,1662.5 L843.9,1659.7 L845.9,1657.1 L848.0,1654.5 L850.2,1652.1 L852.5,1649.7 L854.9,1647.5 L857.4,1645.4 L860.1,1643.4 L862.8,1641.5 L865.6,1639.7 L868.4,1638.1 L871.4,1636.7 L874.4,1635.3 L877.5,1634.1 L880.6,1633.1 L883.8,1632.2 L887.0,1631.4 L890.2,1630.9 L893.5,1630.4 L896.8,1630.1 L900.1,1630.0 L903.4,1630.0 L906.7,1630.2 L910.0,1630.5 L913.2,1631.0 L916.5,1631.7 L919.7,1632.5 L922.8,1633.4 L925.9,1634.5 L929.0,1635.7 L932.0,1637.1 L934.9,1638.7 L937.8,1640.3 L940.6,1642.1 L943.2,1644.0 L945.8,1646.1 L948.3,1648.2 L950.7,1650.5 L968.8,1660.4 L966.9,1658.6 L964.9,1656.8 L962.8,1655.2 L960.7,1653.7 L958.5,1652.2 L956.2,1650.9 L953.8,1649.7 L951.4,1648.6 L949.0,1647.6 L946.5,1646.7 L944.0,1646.0 L941.4,1645.3 L938.8,1644.8 L936.2,1644.4 L933.6,1644.2 L931.0,1644.0 L928.3,1644.0 L925.7,1644.1 L923.1,1644.3 L920.4,1644.7 L917.8,1645.2 L915.3,1645.8 L912.7,1646.5 L910.2,1647.3 L907.8,1648.3 L905.4,1649.3 L903.0,1650.5 L900.7,1651.8 L898.5,1653.2 L896.3,1654.7 L894.2,1656.3 L892.2,1658.0 L890.2,1659.8 L888.4,1661.7 L886.6,1663.6 L885.0,1665.7 L883.4,1667.8 L881.9,1670.0 L880.6,1672.3 L879.3,1674.6 L878.2,1677.0 L877.1,1679.4 L876.2,1681.9 L875.4,1684.4 L874.7,1686.9 L874.2,1689.5 L873.8,1692.1 L873.4,1694.7 L873.3,1697.4 L873.2,1700.0 L873.3,1702.6 L873.4,1705.3 L873.8,1707.9 L874.2,1710.5 L874.7,1713.1 L875.4,1715.6 L876.2,1718.1 L877.1,1720.6 L878.2,1723.0 L879.3,1725.4 L880.6,1727.7 L881.9,1730.0 L883.4,1732.2 L885.0,1734.3 L886.6,1736.4 L888.4,1738.3 L890.2,1740.2 L892.2,1742.0 L894.2,1743.7 L896.3,1745.3 L898.5,1746.8 L900.7,1748.2 L903.0,1749.5 L905.4,1750.7 L907.8,1751.7 L910.2,1752.7 L912.7,1753.5 L915.3,1754.2 L917.8,1754.8 L920.4,1755.3 L923.1,1755.7 L925.7,1755.9 L928.3,1756.0 L931.0,1756.0 L933.6,1755.8 L936.2,1755.6 L938.8,1755.2 L941.4,1754.7 L944.0,1754.0 L946.5,1753.3 L949.0,1752.4 L951.4,1751.4 L953.8,1750.3 L956.2,1749.1 L958.5,1747.8 L960.7,1746.3 L962.8,1744.8 L964.9,1743.2 L966.9,1741.4 L968.8,1739.6" stroke="#6fb5c9" stroke-width="2" fill="none" stroke-linejoin="round" stroke-linecap="round"/>
<text x="808" y="1792">crescent (shadow)</text>
<rect class="border" x="0.5" y="1800.5" width="199" height="199"/>
<path d="M100.0,1830.0 L116.1,1861.2 L149.5,1850.5 L138.8,1883.9 L170.0,1900.0 L138.8,1916.1 L149.5,1949.5 L116.1,1938.8 L100.0,1970.0 L83.9,1938.8 L50.5,1949.5 L61.2,1916.1 L30.0,1900.0 L61.2,1883.9 L50.5,1850.5 L83.9,1861.2 Z" stroke="#6fb5c9" stroke-width="2" fill="none" stroke-linejoin="round" stroke-linecap="round"/>
<text x="8" y="1992">sun (holy mod)</text>
<rect class="border" x="200.5" y="1800.5" width="199" height="199"/>
<path d="M238.8,1891.3 L238.8,1888.0 L239.1,1884.8 L239.5,1881.7 L240.1,1878.5 L240.8,1875.4 L241.7,1872.3 L242.8,1869.3 L244.0,1866.3 L245.4,1863.4 L247.0,1860.6 L248.6,1857.9 L250.4,1855.2 L252.4,1852.7 L254.5,1850.3 L256.7,1847.9 L259.0,1845.7 L261.5,1843.6 L264.0,1841.7 L266.6,1839.9 L269.4,1838.2 L272.2,1836.7 L275.1,1835.3 L278.0,1834.1 L281.1,1833.0 L284.1,1832.1 L287.3,1831.3 L290.4,1830.8 L293.6,1830.3 L296.8,1830.1 L300.0,1830.0 L303.2,1830.1 L306.4,1830.3 L309.6,1830.8 L312.7,1831.3 L315.9,1832.1 L318.9,1833.0 L322.0,1834.1 L324.9,1835.3 L327.8,1836.7 L330.6,1838.2 L333.4,1839.9 L336.0,1841.7 L338.5,1843.6 L341.0,1845.7 L343.3,1847.9 L345.5,1850.3 L347.6,1852.7 L349.6,1855.2 L351.4,1857.9 L353.0,1860.6 L354.6,1863.4 L356.0,1866.3 L357.2,1869.3 L358.3,1872.3 L359.2,1875.4 L359.9,1878.5 L360.5,1881.7 L360.9,1884.8 L361.2,1888.0 L361.3,1891.3 L361.3,1891.3 L361.3,1935.0 L338.5,1940.3 L331.5,1929.8 L338.5,1922.8 L321.0,1947.3 L321.0,1961.3 L314.0,1970.0 L307.0,1961.3 L300.0,1970.0 L293.0,1961.3 L286.0,1970.0 L279.0,1961.3 L279.0,1947.3 L261.5,1922.8 L268.5,1929.8 L261.5,1940.3 L238.8,1935.0 L238.8,1891.3 Z" stroke="#6fb5c9" stroke-width="2" fill="none" stroke-linejoin="round" stroke-linecap="round"/>
<text x="208" y="1992">skull (necro mod)</text>
<rect class="border" x="400.5" y="1800.5" width="199" height="199"/>
<path d="M430.0,1830.0 L570.0,1970.0 L430.0,1970.0 L570.0,1830.0 Z" stroke="#6fb5c9" stroke-width="2" fill="none" stroke-linejoin="round" stroke-linecap="round"/>
<text x="408" y="1992">hourglass (time)</text>
<rect class="border" x="600.5" y="1800.5" width="199" height="199"/>
<path d="M700.0,1830.0 L701.6,1830.1 L703.1,1830.5 L704.5,1831.1 L705.8,1831.9 L707.0,1832.9 L708.0,1834.1 L708.8,1835.4 L709.4,1836.8 L709.8,1838.4 L709.9,1839.9 L709.8,1841.5 L709.4,1843.0 L708.8,1844.4 L708.0,1845.7 L707.0,1846.9 L705.8,1847.9 L704.5,1848.7 L703.1,1849.3 L701.6,1849.7 L700.0,1849.8 L698.4,1849.7 L696.9,1849.3 L695.5,1848.7 L694.2,1847.9 L693.0,1846.9 L692.0,1845.7 L691.2,1844.4 L690.6,1843.0 L690.2,1841.5 L690.1,1839.9 L690.2,1838.4 L690.6,1836.8 L691.2,1835.4 L692.0,1834.1 L693.0,1832.9 L694.2,1831.9 L695.5,1831.1 L696.9,1830.5 L698.4,1830.1 L700.0,1830.0 L700.0,1849.8 L700.0,1864.7 L731.0,1864.7 L731.0,1874.6 L705.0,1874.6 L705.0,1939.0 L737.2,1945.2 L743.4,1963.8 L731.0,1970.0 L706.2,1963.8 L693.8,1963.8 L669.0,1970.0 L656.6,1963.8 L662.8,1945.2 L695.0,1939.0 L695.0,1874.6 L669.0,1874.6 L669.0,1864.7 L700.0,1864.7 Z" stroke="#6fb5c9" stroke-width="2" fill="none" stroke-linejoin="round" stroke-linecap="round"/>
<text x="608" y="1992">anchor (root mod)</text>
<rect class="border" x="800.5" y="1800.5" width="199" height="199"/>
<path d="M900.0,1867.0 L900.0,1866.9 L900.0,1866.7 L900.1,1866.2 L900.1,1865.6 L900.3,1864.9 L900.5,1863.9 L900.7,1862.9 L901.1,1861.7 L901.5,1860.4 L902.1,1859.0 L902.7,1857.5 L903.5,1856.0 L904.4,1854.4 L905.4,1852.7 L906.5,1851.1 L907.8,1849.5 L909.2,1847.9 L910.8,1846.3 L912.4,1844.8 L914.2,1843.4 L916.1,1842.1 L918.1,1840.9 L920.2,1839.8 L922.5,1838.9 L924.7,1838.1 L927.1,1837.5 L929.5,1837.1 L932.0,1836.8 L934.5,1836.7 L937.1,1836.8 L939.6,1837.1 L942.1,1837.6 L944.6,1838.3 L947.1,1839.2 L949.5,1840.2 L951.9,1841.4 L954.1,1842.8 L956.3,1844.4 L958.3,1846.1 L960.2,1847.9 L962.0,1849.9 L963.6,1851.9 L965.1,1854.1 L966.3,1856.4 L967.4,1858.8 L968.4,1861.2 L969.1,1863.7 L969.6,1866.2 L969.9,1868.8 L970.0,1871.4 L969.9,1874.0 L969.6,1876.6 L969.1,1879.3 L968.4,1881.9 L967.4,1884.5 L966.3,1887.1 L965.1,1889.7 L963.6,1892.2 L962.0,1894.7 L960.2,1897.2 L958.3,1899.7 L956.3,1902.1 L954.1,1904.5 L951.9,1906.8 L949.5,1909.1 L947.1,1911.4 L944.6,1913.7 L942.1,1915.9 L939.6,1918.2 L937.1,1920.3 L934.5,1922.5 L932.0,1924.6 L929.5,1926.8 L927.1,1928.9 L924.7,1930.9 L922.5,1933.0 L920.2,1935.0 L918.1,1937.0 L916.1,1938.9 L914.2,1940.8 L912.4,1942.7 L910.8,1944.5 L909.2,1946.3 L907.8,1948.0 L906.5,1949.7 L905.4,1951.3 L904.4,1952.8 L903.5,1954.3 L902.7,1955.6 L902.1,1956.9 L901.5,1958.1 L901.1,1959.1 L900.7,1960.1 L900.5,1960.9 L900.3,1961.6 L900.1,1962.2 L900.1,1962.7 L900.0,1963.0 L900.0,1963.2 L900.0,1963.3 L900.0,1963.2 L900.0,1963.0 L899.9,1962.7 L899.9,1962.2 L899.7,1961.6 L899.5,1960.9 L899.3,1960.1 L898.9,1959.1 L898.5,1958.1 L897.9,1956.9 L897.3,1955.6 L896.5,1954.3 L895.6,1952.8 L894.6,1951.3 L893.5,1949.7 L892.2,1948.0 L890.8,1946.3 L889.2,1944.5 L887.6,1942.7 L885.8,1940.8 L883.9,1938.9 L881.9,1937.0 L879.8,1935.0 L877.5,1933.0 L875.3,1930.9 L872.9,1928.9 L870.5,1926.8 L868.0,1924.6 L865.5,1922.5 L862.9,1920.3 L860.4,1918.2 L857.9,1915.9 L855.4,1913.7 L852.9,1911.4 L850.5,1909.1 L848.1,1906.8 L845.9,1904.5 L843.7,1902.1 L841.7,1899.7 L839.8,1897.2 L838.0,1894.7 L836.4,1892.2 L834.9,1889.7 L833.7,1887.1 L832.6,1884.5 L831.6,1881.9 L830.9,1879.3 L830.4,1876.6 L830.1,1874.0 L830.0,1871.4 L830.1,1868.8 L830.4,1866.2 L830.9,1863.7 L831.6,1861.2 L832.6,1858.8 L833.7,1856.4 L834.9,1854.1 L836.4,1851.9 L838.0,1849.9 L839.8,1847.9 L841.7,1846.1 L843.7,1844.4 L845.9,1842.8 L848.1,1841.4 L850.5,1840.2 L852.9,1839.2 L855.4,1838.3 L857.9,1837.6 L860.4,1837.1 L862.9,1836.8 L865.5,1836.7 L868.0,1836.8 L870.5,1837.1 L872.9,1837.5 L875.3,1838.1 L877.5,1838.9 L879.8,1839.8 L881.9,1840.9 L883.9,1842.1 L885.8,1843.4 L887.6,1844.8 L889.2,1846.3 L890.8,1847.9 L892.2,1849.5 L893.5,1851.1 L894.6,1852.7 L895.6,1854.4 L896.5,1856.0 L897.3,1857.5 L897.9,1859.0 L898.5,1860.4 L898.9,1861.7 L899.3,1862.9 L899.5,1863.9 L899.7,1864.9 L899.9,1865.6 L899.9,1866.2 L900.0,1866.7 L900.0,1866.9 L900.0,1867.0 Z" stroke="#6fb5c9" stroke-width="2" fill="none" stroke-linejoin="round" stroke-linecap="round"/>
<text x="808" y="1992">heart (lifesteal)</text>
<rect class="border" x="0.5" y="2000.5" width="199" height="199"/>
<path d="M94.5,2109.4 L94.8,2109.6 L95.2,2110.0 L95.5,2110.3 L95.8,2110.7 L96.1,2111.1 L96.3,2111.6 L96.5,2112.1 L96.6,2112.7 L96.7,2113.2 L96.8,2113.8 L96.8,2114.4 L96.7,2115.1 L96.6,2115.7 L96.5,2116.4 L96.2,2117.0 L95.9,2117.7 L95.6,2118.3 L95.2,2118.9 L94.7,2119.6 L94.2,2120.1 L93.6,2120.7 L93.0,2121.2 L92.3,2121.7 L91.5,2122.2 L90.7,2122.6 L89.8,2122.9 L88.9,2123.2 L88.0,2123.5 L87.0,2123.6 L86.0,2123.7 L85.0,2123.8 L83.9,2123.7 L82.9,2123.6 L81.8,2123.4 L80.7,2123.1 L79.6,2122.8 L78.6,2122.3 L77.5,2121.8 L76.4,2121.2 L75.4,2120.5 L74.4,2119.7 L73.5,2118.8 L72.6,2117.9 L71.7,2116.9 L71.0,2115.8 L70.2,2114.6 L69.6,2113.4 L69.0,2112.1 L68.5,2110.8 L68.0,2109.4 L67.7,2107.9 L67.5,2106.5 L67.3,2104.9 L67.3,2103.4 L67.4,2101.8 L67.5,2100.2 L67.8,2098.6 L68.2,2097.0 L68.7,2095.4 L69.3,2093.9 L70.0,2092.3 L70.9,2090.8 L71.8,2089.3 L72.9,2087.9 L74.1,2086.5 L75.3,2085.2 L76.7,2083.9 L78.2,2082.7 L79.7,2081.7 L81.4,2080.7 L83.1,2079.8 L84.9,2079.0 L86.8,2078.3 L88.7,2077.7 L90.7,2077.3 L92.7,2077.0 L94.8,2076.8 L96.9,2076.8 L99.0,2076.8 L101.2,2077.1 L103.3,2077.4 L105.5,2078.0 L107.6,2078.6 L109.7,2079.4 L111.8,2080.4 L113.8,2081.5 L115.8,2082.7 L117.7,2084.1 L119.5,2085.6 L121.2,2087.2 L122.9,2089.0 L124.4,2090.8 L125.9,2092.8 L127.2,2094.9 L128.4,2097.1 L129.5,2099.4 L130.4,2101.8 L131.1,2104.3 L131.8,2106.8 L132.2,2109.4 L132.5,2112.0 L132.6,2114.7 L132.6,2117.4 L132.4,2120.1 L132.0,2122.8 L131.4,2125.5 L130.7,2128.2 L129.7,2130.9 L128.6,2133.5 L127.3,2136.0 L125.9,2138.5 L124.3,2140.9 L122.5,2143.2 L120.5,2145.5 L118.4,2147.6 L116.2,2149.6 L113.8,2151.4 L111.3,2153.1 L108.6,2154.7 L105.9,2156.1 L103.0,2157.3 L100.0,2158.3 L97.0,2159.2 L93.9,2159.9 L90.7,2160.4 L87.5,2160.6 L84.2,2160.7 L80.9,2160.6 L77.6,2160.2 L74.4,2159.7 L71.1,2158.9 L67.9,2157.9 L64.7,2156.7 L61.6,2155.3 L58.5,2153.7 L55.6,2151.9 L52.7,2149.9 L50.0,2147.6 L47.3,2145.3 L44.9,2142.7 L42.5,2139.9 L40.4,2137.0 L38.4,2134.0 L36.6,2130.8 L35.0,2127.5 L33.6,2124.0 L32.5,2120.5 L31.5,2116.9 L30.8,2113.2 L30.3,2109.4 L30.0,2105.6 L30.0,2101.7 L30.2,2097.9 L30.7,2094.0 L31.4,2090.1 L32.4,2086.3 L33.6,2082.5 L35.1,2078.8 L36.8,2075.2 L38.8,2071.7 L40.9,2068.2 L43.3,2064.9 L46.0,2061.8 L48.8,2058.8 L51.8,2055.9 L55.1,2053.3 L58.5,2050.8 L62.1,2048.6 L65.8,2046.5 L69.7,2044.7 L73.7,2043.2 L77.8,2041.9 L82.0,2040.8 L86.3,2040.0 L90.7,2039.5 L95.1,2039.3 L99.5,2039.3 L104.0,2039.7 L108.4,2040.3 L112.9,2041.1 L117.2,2042.3 L121.6,2043.8 L125.8,2045.5 L129.9,2047.5 L134.0,2049.8 L137.9,2052.4 L141.6,2055.2 L145.2,2058.2 L148.6,2061.5 L151.8,2065.0 L154.8,2068.7 L157.5,2072.6 L160.1,2076.7 L162.3,2081.0 L164.3,2085.5 L166.0,2090.0 L167.5,2094.7 L168.6,2099.5 L169.5,2104.4 L170.0,2109.4" stroke="#6fb5c9" stroke-width="2" fill="none" stroke-linejoin="round" stroke-linecap="round"/>
<text x="8" y="2192">spiral (confusion)</text>
<rect x="0" y="2168" width="1000" height="32" fill="#15151e"/>
<text x="20" y="2182" fill="#e8e8ea">■ geometric unit</text>
<text x="200" y="2182" fill="#e8a13a">■ symbol / dual-role unit</text>
<text x="430" y="2182" fill="#6fb5c9">■ modifier source (inner-only)</text>
</svg>